<?xml version="1.0" encoding="UTF-8"?>
<!DOCTYPE svg PUBLIC "-//W3C//DTD SVG 1.1//EN" "http://www.w3.org/Graphics/SVG/1.1/DTD/svg11.dtd">
<!-- Creator: CorelDRAW (OEM Version) -->
<svg xmlns="http://www.w3.org/2000/svg" xml:space="preserve" width="517.647mm" height="400mm" version="1.1" style="shape-rendering:geometricPrecision; text-rendering:geometricPrecision; image-rendering:optimizeQuality; fill-rule:evenodd; clip-rule:evenodd"
viewBox="0 0 517.6471 400"
 xmlns:xlink="http://www.w3.org/1999/xlink"
 xmlns:xodm="http://www.corel.com/coreldraw/odm/2003"
 xmlns:svgjs="http://svgjs.com/svgjs"
 display="block">
 <defs>
  <style type="text/css">
   <![CDATA[
    .fil16 {fill:#010217;fill-rule:nonzero}
    .fil11 {fill:#071032;fill-rule:nonzero}
    .fil12 {fill:#071039;fill-rule:nonzero}
    .fil1 {fill:#0F225C;fill-rule:nonzero}
    .fil17 {fill:#2AC3CB;fill-rule:nonzero}
    .fil10 {fill:#344891;fill-rule:nonzero}
    .fil0 {fill:#393185;fill-rule:nonzero}
    .fil15 {fill:#45F0F4;fill-rule:nonzero}
    .fil7 {fill:#5A6FC5;fill-rule:nonzero}
    .fil9 {fill:#7B94DF;fill-rule:nonzero}
    .fil6 {fill:#A0A1A4;fill-rule:nonzero}
    .fil14 {fill:#BCC8F9;fill-rule:nonzero}
    .fil5 {fill:#C4C4C5;fill-rule:nonzero}
    .fil4 {fill:#FEFEFD;fill-rule:nonzero}
    .fil8 {fill:url(#id0);fill-rule:nonzero}
    .fil13 {fill:url(#id1);fill-rule:nonzero}
    .fil3 {fill:url(#id2);fill-rule:nonzero}
    .fil2 {fill:url(#id3);fill-rule:nonzero}
   ]]>
  </style>
  <linearGradient id="id0" gradientUnits="userSpaceOnUse" x1="276.8763" y1="53.2821" x2="278.1517" y2="41.7955">
   <stop offset="0" style="stop-opacity:1; stop-color:#27478A"/>
   <stop offset="1" style="stop-opacity:1; stop-color:#465CB7"/>
  </linearGradient>
  <linearGradient id="id1" gradientUnits="userSpaceOnUse" x1="200.0578" y1="128.5814" x2="160.7568" y2="68.6731">
   <stop offset="0" style="stop-opacity:1; stop-color:#CACACB"/>
   <stop offset="1" style="stop-opacity:1; stop-color:#FCFCFC"/>
  </linearGradient>
  <linearGradient id="id2" gradientUnits="userSpaceOnUse" x1="342.3398" y1="237.8977" x2="306.1034" y2="157.2543">
   <stop offset="0" style="stop-opacity:1; stop-color:#737274"/>
   <stop offset="1" style="stop-opacity:1; stop-color:#9F9FA4"/>
  </linearGradient>
  <linearGradient id="id3" gradientUnits="userSpaceOnUse" x1="316.7114" y1="253.766" x2="246.979" y2="103.492">
   <stop offset="0" style="stop-opacity:1; stop-color:#99989A"/>
   <stop offset="1" style="stop-opacity:1; stop-color:#D0CFD0"/>
  </linearGradient>
 </defs>
 <g id="Layer_x0020_1">
  <metadata id="CorelCorpID_0Corel-Layer"/>
  <g id="_1768289102560">
   <path class="fil0" d="M74.1769 78.534c0.3587,-3.1855 1.4388,-6.891 2.3376,-9.9366 11.3302,-38.3855 43.2893,-60.5905 82.1332,-64.6605 14.5656,-1.5276 27.7919,-1.4601 42.5553,-1.4649l50.1267 0.0059 58.0871 -0.0011c28.6896,-0.0094 58.1251,-1.389 84.6236,11.6856 13.6396,6.7287 28.6931,18.7103 35.8396,32.4172 2.1992,3.1607 4.4834,8.0739 5.9933,11.6017 7.188,16.7906 9.1537,34.1971 9.2,52.2596 0.7176,3.0162 0.47,15.0405 0.4606,18.5812l-0.0106 31.9057 0.0022 77.4723c0.0048,22.5871 0.5662,40.1299 -2.1966,62.8782 -4.2218,34.7739 -21.9655,64.2307 -52.7333,81.9048 -5.0116,2.7922 -18.2698,7.1194 -23.8816,8.2951 -20.3374,4.2714 -42.9306,3.3277 -63.6895,3.2686l-79.303 -0.7474c-20.2249,-0.2723 -40.9803,1.7052 -61.2193,-1.3666 -13.6858,-2.0782 -30.5154,-7.1524 -42.5777,-15.0403 -17.7427,-11.5993 -33.9189,-33.2333 -40.4367,-53.5327 -0.8241,-2.5638 -0.9994,-5.6769 -1.7988,-8.2929 -1.2315,-5.1252 -5.2589,-16.1868 -4.43,-21.094 -2.501,-19.0879 -1.9552,-33.8299 -1.9503,-52.9749l0.0178 -59.6619 -0.0035 -50.5758c-0.045,-16.131 -0.8372,-37.5472 2.8539,-52.9262z"/>
   <path class="fil1" d="M255.8759 30.4402c4.609,3.0316 10.2042,6.5427 14.5443,9.8051 11.9046,4.3542 13.5578,5.0199 23.5548,12.8165 14.6412,6.956 27.877,12.5964 43.4694,17.127 9.1868,2.6692 19.3864,4.6268 28.2655,7.4214 -0.4063,13.9628 1.2374,38.2968 -1.7362,51.683 -5.4283,51.1429 -30.7676,98.0949 -70.5364,130.704 -10.5264,8.6529 -25.6874,18.5575 -37.6941,25.0079 -37.9201,-21.0207 -69.7536,-49.5016 -88.6438,-89.0099 -3.3679,-7.0425 -9.4179,-20.3196 -10.8817,-27.8368 -1.1296,-2.1008 -3.3773,-11.4523 -4.0819,-14.2245 -1.5098,-8.1899 -2.9842,-15.0144 -4.0061,-23.3701 -2.1895,-17.9087 -2.0534,-35.0403 -1.8331,-53.0199 29.9365,-7.0542 43.4718,-11.656 70.7744,-24.3718 9.6737,-8.4148 13.0961,-9.5718 25.1144,-13.6513 4.1375,-2.6846 9.7069,-6.7144 13.6904,-9.0805z"/>
   <path class="fil2" d="M293.975 53.0618c14.6412,6.956 27.877,12.5964 43.4694,17.127 9.1868,2.6692 19.3864,4.6268 28.2655,7.4214 -0.4063,13.9628 1.2374,38.2968 -1.7362,51.683 -5.4283,51.1429 -30.7676,98.0949 -70.5364,130.704 -10.5264,8.6529 -25.6874,18.5575 -37.6941,25.0079 -37.9201,-21.0207 -69.7536,-49.5016 -88.6438,-89.0099 -3.3679,-7.0425 -9.4179,-20.3196 -10.8817,-27.8368 -1.1296,-2.1008 -3.3773,-11.4523 -4.0819,-14.2245 0.7496,0.8028 0.6809,0.8028 1.6769,1.2326 3.9196,0.0237 13.6786,-5.1937 17.8208,-7.1051 0.2238,-1.0977 -0.0863,-1.9064 -0.3468,-3.0079l0.566 -0.1408c6.6149,27.9303 13.3801,47.2576 31.824,70.4595 5.0173,6.314 11.4038,11.8609 15.9131,17.3508 13.7225,12.3333 20.4676,17.2146 36.1097,27.1985 3.5466,-2.154 7.0459,-4.3887 10.486,-6.7061 42.3692,-28.3828 65.0512,-64.1075 74.8587,-113.6233 2.4502,-16.0991 3.2874,-28.3815 3.5075,-44.7802l-0.4984 -0.1386c-6.6575,-2.1447 -14.028,-3.3478 -21.3202,-5.7658 -5.2828,-1.7516 -16.5893,-6.7405 -20.9069,-7.734 -0.687,-1.0705 -0.5994,-1.0397 -0.6692,-2.3318 0.5543,-3.8711 0.3387,-8.5925 -0.8419,-12.3239 -0.1184,-1.6424 -1.009,-3.7491 -1.582,-5.3538 -1.3134,-2.8089 -4.1897,-5.9742 -4.7581,-8.1023z"/>
   <path class="fil3" d="M360.4308 131.9813c0.2686,1.0551 0.1017,0.7164 0.8467,1.5855l0.8276 -0.1351c1.3927,-2.09 0.3483,-2.09 1.8686,-4.1386 -5.4283,51.1429 -30.7676,98.0949 -70.5364,130.704 -10.5264,8.6529 -25.6874,18.5575 -37.6941,25.0079 -37.9201,-21.0207 -69.7536,-49.5016 -88.6438,-89.0099 -3.3679,-7.0425 -9.4179,-20.3196 -10.8817,-27.8368 1.3465,1.3547 3.4247,7.8003 4.1614,9.8429 14.0693,38.9919 41.1767,71.4423 75.7564,94.0854 5.7931,3.7977 13.5637,9.0188 19.7938,11.9531 3.9741,-2.3174 7.9389,-4.6609 11.8868,-7.027 2.6527,-1.6082 19.4788,-12.2316 19.9194,-14.0374 -0.4843,-0.0793 -0.9686,-0.1586 -1.4531,-0.2427 -4.4324,1.6435 -21.5109,15.6456 -25.2647,15.2797 6.0098,-3.1014 22.1977,-13.9403 27.2684,-17.9537 40.0862,-31.4331 66.0424,-77.5042 72.1447,-128.0774z"/>
   <path class="fil4" d="M293.975 53.0618c14.6412,6.956 27.877,12.5964 43.4694,17.127 9.1868,2.6692 19.3864,4.6268 28.2655,7.4214l-3.124 3.2447c-11.8916,-2.4678 -26.6431,-6.8719 -38.2008,-10.7691 -4.3127,0.0771 -13.1339,4.1614 -17.3104,6.2088 -0.6266,1.6365 -0.5117,2.3174 -1.6793,2.9238 -0.8324,-0.1089 -1.4316,-0.2961 -2.186,-0.1125l-2.0522 -0.2642c0.5543,-3.8711 0.3387,-8.5925 -0.8419,-12.3239 -0.1184,-1.6424 -1.009,-3.7491 -1.582,-5.3538 -1.3134,-2.8089 -4.1897,-5.9742 -4.7581,-8.1023z"/>
   <path class="fil5" d="M298.7331 61.1641c1.1592,-0.5825 1.2693,-0.7922 2.926,-0.0887 7.5778,3.2222 14.9138,6.3663 22.7259,9.0105 -4.3127,0.0771 -13.1339,4.1614 -17.3104,6.2088 -0.6266,1.6365 -0.5117,2.3174 -1.6793,2.9238 -0.8324,-0.1089 -1.4316,-0.2961 -2.186,-0.1125l-2.0522 -0.2642c0.5543,-3.8711 0.3387,-8.5925 -0.8419,-12.3239 -0.1184,-1.6424 -1.009,-3.7491 -1.582,-5.3538zm42.3111 78.428l0.3222 0.3435c-4.1601,41.2454 -27.8818,78.2479 -59.5164,104.1508 -8.0241,6.5699 -16.7077,12.7207 -25.8153,17.6989 -6.7287,-4.3885 -35.2606,-22.4083 -36.4448,-29.0623 13.7225,12.3333 20.4676,17.2146 36.1097,27.1985 3.5466,-2.154 7.0459,-4.3887 10.486,-6.7061 42.3692,-28.3828 65.0512,-64.1075 74.8587,-113.6233z"/>
   <path class="fil6" d="M365.7099 77.6102c-0.4063,13.9628 1.2374,38.2968 -1.7362,51.683 -1.5203,2.0485 -0.476,2.0485 -1.8686,4.1386l-0.8276 0.1351c-0.745,-0.8691 -0.578,-0.5304 -0.8467,-1.5855 2.3576,-19.6611 2.2831,-31.4427 2.1551,-51.1264l3.124 -3.2447zm-64.5528 1.2315l2.0522 0.2642c6.2266,4.4667 23.4008,8.4574 31.3006,10.9834 2.0628,0.6596 9.1952,1.6495 10.2527,2.8906l-0.2108 1.832 -0.4984 -0.1386c-6.6575,-2.1447 -14.028,-3.3478 -21.3202,-5.7658 -5.2828,-1.7516 -16.5893,-6.7405 -20.9069,-7.734 -0.687,-1.0705 -0.5994,-1.0397 -0.6692,-2.3318z"/>
   <path class="fil4" d="M255.8759 30.4402c4.609,3.0316 10.2042,6.5427 14.5443,9.8051 11.9046,4.3542 13.5578,5.0199 23.5548,12.8165 0.5684,2.128 3.4447,5.2934 4.7581,8.1023 0.573,1.6046 1.4636,3.7113 1.582,5.3538l-0.6347 -0.4417c-1.0966,-2.9912 -3.2732,-8.5604 -5.5692,-10.6459l-0.3872 0.2119c0.3079,2.9901 7.4414,11.3469 4.9119,13.5235 0.1327,4.3993 0.5649,9.8962 -1.0705,13.9854 -1.0479,3.3358 -1.7538,4.4915 -3.5418,7.5126 -7.9224,9.7528 -17.3201,14.5004 -29.8903,15.8657 -6.4289,0.6655 -12.9195,0.443 -19.2858,-0.662 -4.2855,2.1175 -19.7428,10.0302 -23.3569,11.0818l-1.016 0.3848c0.0591,-3.4234 3.9754,-14.8404 5.1618,-18.5564 -0.4322,-1.1924 -4.8978,-4.6384 -6.249,-5.7906 -5.1025,-6.2738 -6.2762,-9.8738 -7.4864,-17.8149 -0.3209,1.0859 -0.6312,2.1742 -0.9308,3.2647 -0.8337,-0.8761 -0.9284,-1.6365 -1.2671,-2.8006 -1.2671,-2.9451 0.8928,-10.4328 1.9303,-13.4121 1.0077,-2.629 3.9126,-6.1069 5.6982,-8.2964l-0.2605 -0.7555c9.6737,-8.4148 13.0961,-9.5718 25.1144,-13.6513 4.1375,-2.6846 9.7069,-6.7144 13.6904,-9.0805z"/>
   <path class="fil4" d="M255.8759 30.4402c4.609,3.0316 10.2042,6.5427 14.5443,9.8051 -1.1452,0.1054 -7.2,-0.9095 -9.142,-1.0824l-0.772 0.0676 -0.2062 0.2829 -0.5423 0.0711c1.7182,0.1704 2.578,-0.0949 3.5159,0.8454l-0.476 0.5449c-1.3264,-0.09 -2.0132,-0.141 -3.3703,-0.0522 0.0971,0.6655 -0.0534,0.3991 0.3918,0.8254 -6.6527,-0.3101 -10.7726,0.5306 -15.6763,0.4371 -3.7206,-0.9923 -5.5442,1.3701 -9.3775,1.0244l-0.0758 -0.347c2.3244,-0.7307 5.2198,-1.8816 7.6202,-1.8568l0.5115 -0.5862 -0.6358 -0.8987c4.1375,-2.6846 9.7069,-6.7144 13.6904,-9.0805z"/>
   <path class="fil7" d="M252.8799 38.7059l7.8951 0.1704 0.5032 0.2866 -0.772 0.0676 -0.2062 0.2829 -0.5423 0.0711c1.7182,0.1704 2.578,-0.0949 3.5159,0.8454l-0.476 0.5449c-1.3264,-0.09 -2.0132,-0.141 -3.3703,-0.0522 0.0971,0.6655 -0.0534,0.3991 0.3918,0.8254 -6.6527,-0.3101 -10.7726,0.5306 -15.6763,0.4371 -3.7206,-0.9923 -5.5442,1.3701 -9.3775,1.0244l-0.0758 -0.347c2.3244,-0.7307 5.2198,-1.8816 7.6202,-1.8568l0.5115 -0.5862c2.5023,-0.7 7.3136,-1.2967 10.0585,-1.7136z"/>
   <path class="fil5" d="M256.8007 35.4103c1.4803,1.0931 2.944,1.9717 3.9742,3.466l-7.8951 -0.1704 3.9209 -3.2956zm-12.3239 68.6701c16.0743,2.481 33.4772,1.0505 45.4931,-11.2498 2.7498,-2.8148 4.6125,-7.1774 7.5954,-9.6795 -1.0479,3.3358 -1.7538,4.4915 -3.5418,7.5126 -7.9224,9.7528 -17.3201,14.5004 -29.8903,15.8657 -6.4289,0.6655 -12.9195,0.443 -19.2858,-0.662 -4.2855,2.1175 -19.7428,10.0302 -23.3569,11.0818 0.3576,-0.9604 0.8869,-1.9457 1.8012,-2.4478 6.5567,-3.5987 14.491,-7.1372 21.1852,-10.4209z"/>
   <path class="fil8" d="M261.2782 39.1629c1.942,0.1729 7.9969,1.1878 9.142,1.0824 11.9046,4.3542 13.5578,5.0199 23.5548,12.8165 0.5684,2.128 3.4447,5.2934 4.7581,8.1023 0.573,1.6046 1.4636,3.7113 1.582,5.3538l-0.6347 -0.4417c-1.0966,-2.9912 -3.2732,-8.5604 -5.5692,-10.6459l-0.3872 0.2119c0.3079,2.9901 7.4414,11.3469 4.9119,13.5235 -0.2996,-0.5447 -0.9556,-2.7439 -1.2067,-3.5218 -5.1203,-15.9298 -21.9418,-22.9923 -37.61,-23.8959 -0.4452,-0.4263 -0.2948,-0.1599 -0.3918,-0.8254 1.3571,-0.0887 2.0439,-0.0378 3.3703,0.0522l0.476 -0.5449c-0.9378,-0.9403 -1.7977,-0.6749 -3.5159,-0.8454l0.5423 -0.0711 0.2062 -0.2829 0.772 -0.0676z"/>
   <path class="fil9" d="M217.0711 53.172c9.6737,-8.4148 13.0961,-9.5718 25.1144,-13.6513l0.6358 0.8987 -0.5115 0.5862c-2.4004,-0.0248 -5.2958,1.1261 -7.6202,1.8568l0.0758 0.347c3.8333,0.3457 5.6569,-2.0167 9.3775,-1.0244 -10.0111,2.2262 -16.2707,4.5508 -23.9598,11.6821l-0.9899 -0.6301 -1.8616 0.6905 -0.2605 -0.7555z"/>
   <path class="fil10" d="M211.6333 62.224l0.6027 1.8236c0.7294,0.2546 0.3742,0.1491 1.0635,0.3244l0.2012 0.2796c-1.0657,4.0061 -1.4801,6.32 -1.5998,10.5204 -0.3209,1.0859 -0.6312,2.1742 -0.9308,3.2647 -0.8337,-0.8761 -0.9284,-1.6365 -1.2671,-2.8006 -1.2671,-2.9451 0.8928,-10.4328 1.9303,-13.4121z"/>
   <path class="fil7" d="M217.3315 53.9276l1.8616 -0.6905 0.9899 0.6301c-4.3376,4.7983 -3.8983,5.7089 -6.6824,10.7844l-0.2012 -0.2796c-0.6892,-0.1753 -0.334,-0.0698 -1.0635,-0.3244l-0.6027 -1.8236c1.0077,-2.629 3.9126,-6.1069 5.6982,-8.2964z"/>
   <path class="fil1" d="M221.2891 60.315c6.0335,-10.068 22.116,-14.2292 33.0355,-14.0989 12.3772,0.1491 23.6745,2.0736 32.7809,10.9953 9.4557,8.2384 9.8607,24.0119 1.0444,32.9312 -11.9663,12.1025 -27.9565,13.1896 -43.7962,10.7526 -5.5088,2.3103 -11.3493,5.2387 -16.6888,7.9742 1.1616,-4.1056 2.5732,-8.6885 3.5811,-12.7917 -7.0081,-4.4904 -12.2814,-9.0401 -14.1784,-17.6065 -1.208,-5.6096 -0.2119,-11.4677 2.7817,-16.3644 0.2972,-0.4797 0.9982,-1.5146 1.4399,-1.7918z"/>
   <path class="fil11" d="M221.2891 60.315c6.0335,-10.068 22.116,-14.2292 33.0355,-14.0989 12.3772,0.1491 23.6745,2.0736 32.7809,10.9953l-0.8811 0.2155c-1.3523,-1.0479 -4.7841,-4.1175 -6.2205,-4.745 -15.192,-6.6149 -38.9151,-7.6204 -52.6766,2.8017 -1.9752,1.4957 -3.8497,3.9885 -6.0382,4.8315z"/>
   <path class="fil4" d="M251.6721 77.9346c-1.5596,-1.8816 -1.6295,-4.5875 -0.1671,-6.5473 1.459,-1.9611 4.0761,-2.6668 6.3226,-1.7076 2.2523,0.958 3.5513,3.3312 3.1511,5.7434l0.3257 0.0947c1.1759,3.8688 -1.9077,6.8007 -4.9215,8.7867 -1.4981,0.9853 -4.9477,-4.5899 -4.9345,-6.204l0.2238 -0.1658z"/>
   <path class="fil12" d="M260.9786 75.4231l0.3257 0.0947c1.1759,3.8688 -1.9077,6.8007 -4.9215,8.7867 -1.4981,0.9853 -4.9477,-4.5899 -4.9345,-6.204l0.2238 -0.1658c1.3262,1.5963 3.459,2.2736 5.459,1.7325 2.0048,-0.5412 3.5077,-2.199 3.8475,-4.244z"/>
   <path class="fil4" d="M234.828 77.9974c-1.6543,-1.9859 -1.6163,-4.88 0.0876,-6.8233 1.7041,-1.9433 4.5675,-2.3565 6.7535,-0.9769 2.1836,1.3808 3.0399,4.1458 2.0167,6.5189 1.3358,5.1146 -8.8009,7.1833 -8.8578,1.2813z"/>
   <path class="fil11" d="M243.6858 76.7161c1.3358,5.1146 -8.8009,7.1833 -8.8578,1.2813 1.1689,1.4021 2.9806,2.0984 4.7867,1.8368 1.8069,-0.2618 3.3477,-1.4412 4.0711,-3.1181z"/>
   <path class="fil4" d="M273.5524 79.6376c-2.3661,0.4878 -4.7629,-0.6988 -5.8108,-2.8765 -1.0492,-2.179 -0.4808,-4.7913 1.3784,-6.3366 1.8603,-1.5465 4.5295,-1.6282 6.4823,-0.2001 1.9515,1.4281 2.6786,4.0002 1.7667,6.2383l1.0433 1.0623c-0.7744,2.134 -0.9071,2.5412 -3.1807,3.3026 -1.19,-0.5838 -0.881,-0.2605 -1.6791,-1.19z"/>
   <path class="fil12" d="M277.369 76.4626l1.0433 1.0623c-0.7744,2.134 -0.9071,2.5412 -3.1807,3.3026 -1.19,-0.5838 -0.881,-0.2605 -1.6791,-1.19 1.723,-0.3553 3.1546,-1.5455 3.8166,-3.175z"/>
   <path class="fil13" d="M217.0711 53.172l0.2605 0.7555c-1.7856,2.1895 -4.6905,5.6674 -5.6982,8.2964 -1.0375,2.9793 -3.1974,10.4671 -1.9303,13.4121l0.1682 2.8409 0.3233 2.038c-16.6818,8.1425 -26.0345,9.5907 -43.1059,14.5797l0.3576 2.0026c-0.0958,18.3893 1.8095,30.1482 4.4065,47.8153l-0.566 0.1408c0.2605,1.1014 0.5706,1.9101 0.3468,3.0079 -4.1423,1.9114 -13.9013,7.1289 -17.8208,7.1051 -0.996,-0.4298 -0.9273,-0.4298 -1.6769,-1.2326 -1.5098,-8.1899 -2.9842,-15.0144 -4.0061,-23.3701 -2.1895,-17.9087 -2.0534,-35.0403 -1.8331,-53.0199 29.9365,-7.0542 43.4718,-11.656 70.7744,-24.3718z"/>
   <path class="fil5" d="M209.8712 78.4771l0.3233 2.038c-16.6818,8.1425 -26.0345,9.5907 -43.1059,14.5797 -0.5412,-0.9354 -0.3742,-0.4346 -0.2961,-1.5715 2.1517,-1.7951 9.8299,-2.6536 13.2358,-3.7467 10.8022,-3.466 19.5511,-6.4017 29.8429,-11.2995z"/>
   <path class="fil12" d="M294.0235 90.6636l0.3565 0.8028c-3.9209,6.3046 -13.6278,12.4317 -20.7826,14.189 -2.7592,0.6774 -7.3017,1.3868 -10.2042,1.8972l-0.2346 0.3789c5.349,0.3883 15.7214,-3.253 20.3563,-5.696l0.3481 0.2925c-1.2517,1.7408 -2.6703,1.7525 -2.9262,2.7757 2.6396,-0.5601 5.0625,-3.2424 7.4203,-3.5253 -0.2203,0.8799 -2.468,2.07 -3.3004,2.578 -17.2146,10.4824 -33.032,2.714 -44.0637,7.9896 -4.0667,1.9433 -13.983,9.4405 -18.1893,8.4635 -0.7046,-0.1647 -1.1605,-0.5449 -1.5809,-1.1368 -0.3894,-0.5471 -0.7092,-1.6674 -0.7483,-2.3389l1.016 -0.3848c3.6141,-1.0516 19.0714,-8.9643 23.3569,-11.0818 6.3663,1.105 12.8569,1.3275 19.2858,0.662 12.5703,-1.3653 21.9679,-6.1128 29.8903,-15.8657zm-83.829 -10.1486c0.3066,1.5513 0.3718,1.5287 0.0437,3.1522 -4.7568,6.4232 -32.1899,12.5347 -40.2803,15.0049 -0.1847,0.3672 -0.3694,0.7331 -0.553,1.1001l-1.2056 -1.5831 0.257 1.0503c-0.8122,-0.9106 -0.72,-0.9284 -1.0101,-2.1421l-0.3576 -2.0026c17.0714,-4.989 26.4241,-6.4372 43.1059,-14.5797zm133.8588 14.1582c0.0448,1.1557 0.1729,1.2398 -0.392,2.2049l-0.2818 -0.0485 0.5506 0.8597 -0.7177 -0.8526c-5.3358,-0.4736 -8.2218,-2.3281 -13.5578,-2.2464 1.273,0.8598 5.4638,1.6295 7.618,2.4276l-0.2333 0.4891c-0.8019,-0.0048 -0.6525,0.0782 -1.2826,-0.1669 -7.7232,-2.9936 -24.1445,-5.9044 -30.1282,-11.1137l0.6088 -0.6182c-1.2695,-0.7294 -2.0665,-1.0824 -3.0755,-2.1634l0.3387 -0.2796c7.7992,3.6035 14.536,5.0898 22.1315,8.2303l0.4889 0.2084 0.4761 -0.4193c-7.2213,-3.369 -16.2981,-5.1205 -24.7792,-9.4796l0.0083 -0.5315c4.3176,0.9934 15.6241,5.9824 20.9069,7.734 7.2923,2.418 14.6627,3.6211 21.3202,5.7658zm-124.666 -1.6863c1.3512,1.1522 5.8168,4.5982 6.249,5.7906 -2.7757,0.2842 -6.3544,-2.8871 -6.249,-5.7906z"/>
   <path class="fil7" d="M257.5859 166.8925c1.6424,0.103 3.6828,0.1704 5.2826,0.3683 5.9174,1.1592 11.0722,2.6964 15.4158,7.2484 3.2967,2.2346 4.1779,6.84 5.2839,10.4398l0.4132 -0.8917c1.208,5.2993 1.3086,33.5933 -1.2374,38.4046 -1.8414,1.3962 -3.15,1.3345 -5.3538,1.0397 -2.3044,-1.5383 -3.5952,-3.1014 -5.0577,-5.4509l-0.0094 -0.3303c0.913,0.0532 0.463,0.0141 1.3536,0.1243 -0.0226,-3.4768 0.2462,-26.7142 -0.4808,-28.5071l-0.7094 -0.1575c-1.9255,3.3951 0.7935,27.9859 -1.2339,32.2811l-0.405 -0.154c-0.0094,-1.0006 0.1717,-1.7538 -0.264,-2.4713 -9.5257,-0.4713 -19.7488,-0.2381 -29.3088,-0.1504 0.2961,2.2559 1.2031,-0.4228 0.9556,2.4098l-0.5684 0.1373c-3.0553,-3.1416 -1.3038,-25.6082 -1.6413,-31.4759l-1.2091 -0.7151 -0.6833 0.4156c-0.4915,2.5899 -0.2297,25.7527 -0.0107,29.3254 -1.9776,-0.0793 -7.8523,-0.5247 -9.3716,0.2605l-0.0949 2.2027 -0.3314 -0.0309c-1.4032,-2.1375 -1.3749,-28.7628 -0.8717,-32.3828l0.179 -0.0369 0.3327 2.0132c0.103,-2.0498 0.1704,-3.5904 0.4713,-5.6402 0.1882,-1.1096 0.5102,-2.2229 0.7922,-3.3193 0.5979,-1.7716 1.4542,-3.4449 2.5388,-4.9677 4.4467,-6.2218 11.0581,-8.4989 18.1786,-9.8182l7.6452 -0.1704z"/>
   <path class="fil11" d="M283.5683 184.949l0.4132 -0.8917c1.208,5.2993 1.3086,33.5933 -1.2374,38.4046 -1.8414,1.3962 -3.15,1.3345 -5.3538,1.0397 -2.3044,-1.5383 -3.5952,-3.1014 -5.0577,-5.4509l-0.0094 -0.3303c0.913,0.0532 0.463,0.0141 1.3536,0.1243 -0.0226,-3.4768 0.2462,-26.7142 -0.4808,-28.5071l-0.7094 -0.1575c-1.9255,3.3951 0.7935,27.9859 -1.2339,32.2811l-0.405 -0.154c-0.0094,-1.0006 0.1717,-1.7538 -0.264,-2.4713 -9.5257,-0.4713 -19.7488,-0.2381 -29.3088,-0.1504 0.2961,2.2559 1.2031,-0.4228 0.9556,2.4098l-0.5684 0.1373c-3.0553,-3.1416 -1.3038,-25.6082 -1.6413,-31.4759l-1.2091 -0.7151 -0.6833 0.4156c-0.4915,2.5899 -0.2297,25.7527 -0.0107,29.3254 -1.9776,-0.0793 -7.8523,-0.5247 -9.3716,0.2605l-0.0949 2.2027 -0.3314 -0.0309c-1.4032,-2.1375 -1.3749,-28.7628 -0.8717,-32.3828l0.179 -0.0369 0.3327 2.0132c-0.2073,4.3366 -0.2429,22.3435 0.6288,26.2205 1.64,1.4849 6.3933,0.9651 8.7037,0.8952 -0.0248,-3.446 -0.5588,-27.5289 0.2985,-28.8884 1.2198,-0.5886 1.1913,-0.4724 2.5591,-0.2392 1.042,2.2723 0.4476,24.4346 0.617,28.8895l30.3626 0.0178c0.2025,-5.3716 -0.6075,-24.7224 0.2607,-28.4241 1.0657,-1.0446 0.3954,-0.6538 2.3387,-0.707 1.2824,1.2126 0.6264,25.3453 0.8111,29.3821 3.8108,0.0308 5.3573,-0.0272 9.1113,-0.5684 0.4713,-9.1337 0.5115,-23.5594 -0.0828,-32.4374z"/>
   <path class="fil14" d="M257.5859 166.8925c1.6424,0.103 3.6828,0.1704 5.2826,0.3683 5.9174,1.1592 11.0722,2.6964 15.4158,7.2484l-0.5541 0.5377c-11.5969,-10.6553 -39.0062,-9.5848 -46.8917,5.5668l-1.6152 1.2352c0.5979,-1.7716 1.4542,-3.4449 2.5388,-4.9677 4.4467,-6.2218 11.0581,-8.4989 18.1786,-9.8182l7.6452 -0.1704z"/>
   <path class="fil9" d="M230.8385 180.6136c-0.4311,1.3773 -1.1535,4.327 -2.0487,5.2319l-0.3587 -0.6774c0.1882,-1.1096 0.5102,-2.2229 0.7922,-3.3193l1.6152 -1.2352z"/>
   <path class="fil15" d="M280.1886 172.3587l-0.3481 -0.9415c2.1327,-2.2286 9.6843,-2.9141 12.7027,-2.9829 7.1857,-0.1634 14.8083,0.6394 20.219,5.8961 6.1151,5.2295 7.1998,16.8534 3.7669,23.8805l0.3481 0.45c-2.1588,3.7716 -4.8682,8.1104 -8.8874,9.4284 -1.5014,0.4891 -0.0213,4.5023 -2.9688,7.265 -4.7983,4.5036 -13.8622,3.349 -20.1751,3.208l-0.199 -0.6655 1.3358 -0.5282c1.2862,-3.5691 -0.6655,-26.1504 0.7615,-30.3342 0.4098,-5.0351 -2.6347,-11.5707 -6.5556,-14.6757z"/>
   <path class="fil11" d="M316.5291 198.2108l0.3481 0.45c-2.1588,3.7716 -4.8682,8.1104 -8.8874,9.4284 -1.5014,0.4891 -0.0213,4.5023 -2.9688,7.265 -4.7983,4.5036 -13.8622,3.349 -20.1751,3.208l-0.199 -0.6655 1.3358 -0.5282c1.2862,-3.5691 -0.6655,-26.1504 0.7615,-30.3342 0.6347,9.6039 0.4193,21.0016 0.4322,30.7392 4.3046,0.0048 8.6008,0.0793 12.8923,-0.251 3.0577,-1.9822 4.2774,-3.3619 6.4326,-6.3189 0.0876,-6.0263 0.0971,-12.0539 0.0356,-18.0813l3.401 0.8548 -0.2073 13.2085c0.8634,-1.1759 6.1069,-8.3841 6.7985,-8.9749z"/>
   <path class="fil4" d="M280.1886 172.3587l-0.3481 -0.9415c2.1327,-2.2286 9.6843,-2.9141 12.7027,-2.9829 7.1857,-0.1634 14.8083,0.6394 20.219,5.8961 -2.1943,0.1149 -3.7232,-1.5194 -5.8914,-2.2925 -8.9703,-3.2044 -17.8659,-2.2003 -26.6822,0.3209z"/>
   <path class="fil16" d="M306.5369 193.1224c-0.0404,-1.7325 -0.3174,-2.9215 0.6914,-4.2477l0.8717 -0.4867c1.4329,0.5102 0.8111,0.0995 1.8069,1.4459 0.2381,1.7147 0.1458,2.3896 0.0309,4.1434l-3.401 -0.8548z"/>
   <path class="fil15" d="M194.9599 180.5427c3.2304,-9.2296 12.7348,-12.4282 21.7701,-12.2849 3.3892,0.0534 13.6656,0.1717 15.3614,3.4924 -4.8196,4.4619 -7.6509,10.1071 -7.5042,16.6425 0.1882,8.325 -0.4547,20.0354 0.2238,28.0157 -0.1693,0.727 -0.02,0.3255 -0.5779,1.1581 -4.6597,1.1592 -12.7372,0.8324 -16.2803,-2.7841l-2.6229 -3.2648c-0.1825,-3.1546 -0.1362,-6.8339 -0.1693,-10.0372 -0.7474,0.9427 -0.4678,6.7854 -0.4548,8.4374l-0.3635 0.1977c0.1942,-2.9025 -0.7022,-1.0835 -2.1493,-2.4098 0.3138,-3.1192 0.3031,-7.9435 -0.3244,-10.9929 -0.1054,3.3312 -0.0463,6.9975 -0.0628,10.3546 -6.3709,-8.3805 -11.1705,-15.456 -6.8458,-26.5247z"/>
   <path class="fil4" d="M194.9599 180.5427c3.2304,-9.2296 12.7348,-12.4282 21.7701,-12.2849 3.3892,0.0534 13.6656,0.1717 15.3614,3.4924 -3.0977,-0.0522 -6.0986,-0.855 -9.1679,-1.2767 -11.1266,-1.5264 -20.9082,-0.1799 -27.1203,10.1699l-0.8432 -0.1006z"/>
   <path class="fil11" d="M201.8685 196.7127c-0.0995,-2.6123 -0.3885,-5.2826 0.2214,-7.7849l0.5282 -0.4902c1.5394,0.0852 1.6508,-0.1966 2.4784,0.6205 0.5886,3.0197 0.1245,9.0959 0.0641,12.4222 -0.7474,0.9427 -0.4678,6.7854 -0.4548,8.4374l-0.3635 0.1977c0.1942,-2.9025 -0.7022,-1.0835 -2.1493,-2.4098 0.3138,-3.1192 0.3031,-7.9435 -0.3244,-10.9929z"/>
   <path class="fil17" d="M207.9528 214.7824c6.435,1.3215 10.8697,0.7969 16.8582,1.6259 -0.1693,0.727 -0.02,0.3255 -0.5779,1.1581 -4.6597,1.1592 -12.7372,0.8324 -16.2803,-2.7841z"/>
   <path class="fil7" d="M240.9575 146.6144c1.022,-4.4219 3.0457,-7.882 7.0057,-10.319 3.6521,-2.1979 8.0311,-2.8469 12.164,-1.8025 3.658,0.9451 6.4469,3.1098 8.3368,6.3544 1.9302,2.3081 2.4761,5.7825 2.5506,8.7276 -0.3789,4.5365 -0.5328,5.2198 -2.9688,9.0827l0.3435 0.6264c-1.3843,1.5146 -5.0364,4.1519 -5.1548,4.815 0.7,1.3323 0.9686,1.3167 0.9154,2.6182l-1.2813 0.5436c-1.5998,-0.1979 -3.6402,-0.2653 -5.2826,-0.3683l-7.6452 0.1704c-1.6389,-0.0178 -3.8284,-0.1041 -4.7155,-1.7514l2.9534 0.2996 -0.0485 -0.4096c-4.8552,-2.6042 -4.8871,-3.3371 -6.7239,-8.2077l0.2594 -0.4169 1.4553 1.3606 0.0758 -0.823c-2.1706,-3.4803 -3.0799,-6.4847 -2.2392,-10.5002z"/>
   <path class="fil11" d="M249.9407 167.0629c-1.6389,-0.0178 -3.8284,-0.1041 -4.7155,-1.7514l2.9534 0.2996 -0.0485 -0.4096c-4.8552,-2.6042 -4.8871,-3.3371 -6.7239,-8.2077l0.2594 -0.4169 1.4553 1.3606c2.2097,2.1493 3.5644,3.4685 6.0311,5.3277 8.4954,2.1482 12.6544,1.7041 18.8937,-4.6077l0.3435 0.6264c-1.3843,1.5146 -5.0364,4.1519 -5.1548,4.815 0.7,1.3323 0.9686,1.3167 0.9154,2.6182l-1.2813 0.5436c-1.5998,-0.1979 -3.6402,-0.2653 -5.2826,-0.3683l-7.6452 0.1704z"/>
   <path class="fil12" d="M249.9407 167.0629c-1.6389,-0.0178 -3.8284,-0.1041 -4.7155,-1.7514l2.9534 0.2996 -0.0485 -0.4096c-4.8552,-2.6042 -4.8871,-3.3371 -6.7239,-8.2077l0.2594 -0.4169 1.4553 1.3606c2.2097,2.1493 3.5644,3.4685 6.0311,5.3277l-0.1101 0.4689c1.6435,0.5306 2.996,0.951 4.6705,1.3714l-0.3837 0.5364c-1.414,-0.1136 -1.819,-0.1504 -3.2554,-0.476l-0.7094 0.2996c0,0 0,0 0,0 1.4625,1.0503 5.1502,0.4406 8.222,1.427l-7.6452 0.1704z"/>
   <path class="fil10" d="M243.1967 157.1146c2.7487,0.367 3.5148,3.427 8.48,4.8787 3.7362,1.1263 7.7719,0.6597 11.1563,-1.2906 4.146,-2.3874 6.9039,-6.5914 8.1816,-11.1279 -0.3789,4.5365 -0.5328,5.2198 -2.9688,9.0827 -6.2394,6.3118 -10.3983,6.7559 -18.8937,4.6077 -2.4667,-1.8592 -3.8214,-3.1783 -6.0311,-5.3277l0.0758 -0.823z"/>
   <path class="fil14" d="M240.9575 146.6144c1.022,-4.4219 3.0457,-7.882 7.0057,-10.319 3.6521,-2.1979 8.0311,-2.8469 12.164,-1.8025 3.658,0.9451 6.4469,3.1098 8.3368,6.3544 -0.9866,-0.3991 -0.9556,-0.4037 -1.7052,-1.1463 -3.1453,-3.1179 -7.1596,-4.6883 -11.6052,-4.3531 -3.9789,0.3055 -7.6628,2.2027 -10.2244,5.2626 -2.083,2.45 -3.0373,4.8789 -3.6152,7.9874 -0.347,-1.1085 -0.2723,-0.8219 -0.3565,-1.9835z"/>
   <path class="fil15" d="M205.3534 148.9377c1.5064,-4.6182 5.3988,-8.0572 10.1675,-8.9821 4.7689,-0.9249 9.6643,0.8089 12.7881,4.5295 4.1377,4.9275 4.179,12.1025 0.1006,17.0774 -4.0782,4.976 -11.1218,6.3426 -16.7657,3.2517 -5.6426,-3.0894 -8.2859,-9.7601 -6.2905,-15.8764z"/>
   <path class="fil4" d="M205.3534 148.9377c1.5064,-4.6182 5.3988,-8.0572 10.1675,-8.9821 4.7689,-0.9249 9.6643,0.8089 12.7881,4.5295 -1.4696,-0.0059 -1.5098,-0.309 -2.6442,-1.0657 -5.4344,-3.6259 -11.1114,-3.4887 -15.9961,0.9675 -1.5111,1.3784 -2.9855,3.466 -4.3153,4.5508z"/>
   <path class="fil15" d="M280.9512 148.83c1.5111,-4.3935 5.1987,-7.6843 9.7364,-8.6909 4.5343,-1.0066 9.2711,0.4156 12.5004,3.7551 4.5686,4.725 5.0186,12.0717 1.0659,17.3225 -3.9518,5.2506 -11.1387,6.8458 -16.9412,3.761 -5.8073,-3.0849 -8.5038,-9.9331 -6.3615,-16.1477z"/>
   <path class="fil4" d="M280.9512 148.83c1.5111,-4.3935 5.1987,-7.6843 9.7364,-8.6909 4.5343,-1.0066 9.2711,0.4156 12.5004,3.7551 -4.128,-0.1955 -8.5877,-5.6698 -15.218,-1.5583 -3.0138,1.8673 -5.0151,5.24 -7.0188,6.4941zm-97.1429 190.1364c-5.0032,-4.3933 -6.403,-13.346 -3.0327,-19.0786 3.9055,-6.7239 11.8716,-9.4948 19.3604,-9.477 12.1829,0.0308 19.6789,3.0184 22.6938,15.5437 -4.0476,1.0753 -8.075,2.2216 -12.0811,3.4377 -0.6299,-2.1245 -1.0681,-3.1333 -1.9954,-5.1559 -4.5319,-4.397 -10.4978,-4.5154 -15.2015,-0.3387 -0.3826,1.6874 -0.9249,3.4981 0.0106,5.1157 4.4871,7.754 34.2931,3.7491 30.2764,26.7922 -0.1399,0.7981 -0.1421,0.7496 -0.3411,1.3975 -4.0002,15.147 -29.3373,17.192 -39.3069,8.7274 -4.3709,-3.2339 -5.7931,-7.3881 -7.2082,-12.3096 3.7395,-1.1416 8.6564,-2.1992 12.5275,-3.1465 0.1788,0.7804 0.3837,1.5561 0.6145,2.3222 3.1098,10.0456 23.2576,9.4416 18.6203,-2.392 -5.9222,-5.799 -16.5869,-4.1862 -24.9367,-11.4381z"/>
   <path class="fil5" d="M184.1908 365.9303c1.5868,-0.4358 9.6641,2.481 13.0236,2.7628 7.3195,0.7402 15.8575,0.1551 21.1379,-5.6343 1.6721,-1.8333 3.1605,-4.4952 5.1453,-5.8559 -4.0002,15.147 -29.3373,17.192 -39.3069,8.7274zm-0.3826 -26.964c1.8581,-0.4808 20.1278,6.1684 22.8289,7.3881 0.9864,0.4454 1.9552,1.3879 2.4632,2.3885 -0.1113,0.6609 -0.1267,1.0351 -0.3553,1.6615 -5.9222,-5.799 -16.5869,-4.1862 -24.9367,-11.4381zm9.7436 -15.0688c-0.045,-1.2873 -0.3009,-1.8414 0.8408,-2.8245 3.6532,-3.1463 14.266,-3.2743 14.3607,3.1631 -4.5319,-4.397 -10.4978,-4.5154 -15.2015,-0.3387z"/>
   <path class="fil4" d="M285.8892 311.666c4.3448,-0.1847 9.2226,-0.1006 13.6065,-0.1278 -0.0711,7.8866 -1.6745,40.6107 2.7189,45.3165 1.6519,1.7704 4.0878,2.282 6.4232,2.2868 2.5827,0 5.3358,-0.8065 7.1429,-2.732 1.5952,-1.6923 2.1186,-4.0404 2.4584,-6.2738 0.7485,-4.9701 0.3872,-10.2575 0.3659,-15.2937l-0.0532 -23.1096c4.3044,-0.1847 8.9703,-0.1456 13.3067,-0.1895 -0.1278,11.6359 2.1588,41.6067 -3.2695,50.3518 -6.5262,10.3759 -25.0138,11.218 -34.5571,5.0672 -1.2163,-0.7885 -2.3081,-1.7538 -3.2424,-2.8634 -5.8297,-5.6356 -4.9084,-19.783 -4.9132,-27.401l0.013 -25.0314z"/>
   <path class="fil5" d="M290.7894 364.0984c2.0617,0.1445 9.3054,3.9742 13.2843,4.5995 5.6521,0.9473 12.6709,-0.2605 17.9239,-2.4324 2.0795,-0.8585 3.4188,-3.7621 6.5914,-4.3709 -6.5262,10.3759 -25.0138,11.218 -34.5571,5.0672 -1.2163,-0.7885 -2.3081,-1.7538 -3.2424,-2.8634z"/>
   <path class="fil4" d="M266.5478 311.6754c4.3483,-0.2346 9.4155,-0.1373 13.8171,-0.1551 -1.5027,4.4726 -3.0801,8.9134 -4.7368,13.3293l-15.7864 44.8039c-4.7013,-0.0617 -9.4736,-0.0167 -14.1795,-0.0167 -4.7854,-13.3506 -8.7513,-27.2648 -13.4275,-40.6853 -1.9446,-5.5833 -4.0061,-11.6584 -5.5361,-17.3295 4.8871,-0.0923 9.9127,-0.0615 14.8119,-0.0876 3.3323,13.0014 8.0915,27.2424 11.7697,40.3763 4.5827,-13.3588 9.0021,-26.7757 13.2676,-40.2353z"/>
  </g>
 </g>
</svg>
