<svg id="SvgjsSvg1001" width="288" height="288" xmlns="http://www.w3.org/2000/svg" version="1.1" xmlns:xlink="http://www.w3.org/1999/xlink" xmlns:svgjs="http://svgjs.com/svgjs"><defs id="SvgjsDefs1002"></defs><g id="SvgjsG1008"><svg xmlns="http://www.w3.org/2000/svg" display="block" preserveAspectRatio="none" viewBox="0 0 2048 2048" width="288" height="288"><defs><linearGradient id="e" x1="897.372" x2="807.603" y1="861.87" y2="725.809" gradientUnits="userSpaceOnUse"><stop offset="0" stop-color="#CACACB" class="svgShape stopColorcacacb-2"></stop><stop offset="1" stop-color="#FCFCFC" class="svgShape stopColorfcfcfc-3"></stop></linearGradient><linearGradient id="d" x1="1073.43" x2="1076.56" y1="690.957" y2="664.17" gradientUnits="userSpaceOnUse"><stop offset="0" stop-color="#27478A" class="svgShape stopColor27478a-5"></stop><stop offset="1" stop-color="#465CB7" class="svgShape stopColor465cb7-6"></stop></linearGradient><linearGradient id="c" x1="1220.54" x2="1138.63" y1="1109.72" y2="926.654" gradientUnits="userSpaceOnUse"><stop offset="0" stop-color="#737274" class="svgShape stopColor737274-8"></stop><stop offset="1" stop-color="#9F9FA4" class="svgShape stopColor9f9fa4-9"></stop></linearGradient><linearGradient id="b" x1="1166.29" x2="1006.37" y1="1145.94" y2="804.224" gradientUnits="userSpaceOnUse"><stop offset="0" stop-color="#99989A" class="svgShape stopColor99989a-11"></stop><stop offset="1" stop-color="#D0CFD0" class="svgShape stopColord0cfd0-12"></stop></linearGradient><linearGradient id="a" x1="1230.48" x2="824.669" y1="1591.09" y2="463.535" gradientUnits="userSpaceOnUse"><stop offset="0" stop-color="#171D29" class="svgShape stopColor171d29-14"></stop><stop offset="1" stop-color="#323C50" class="svgShape stopColor323c50-15"></stop></linearGradient></defs><path fill="#FEFEFD" d="M 0 0 L 2048 0 L 2048 2048 L 0 2048 L 0 0 z" class="svgShape colorfefefd-16 selectable"></path><path fill="url(#a)" d="M 496.596 699.918 C 497.623 690.784 500.722 680.16 503.3 671.424 C 535.79 561.349 627.434 497.676 738.825 486.002 C 780.595 481.624 818.524 481.816 860.856 481.805 L 1004.6 481.82 L 1171.17 481.814 C 1253.44 481.787 1337.85 477.833 1413.84 515.326 C 1452.95 534.622 1496.12 568.978 1516.61 608.286 C 1522.92 617.351 1529.47 631.437 1533.8 641.555 C 1554.41 689.703 1560.05 739.619 1560.18 791.415 C 1562.24 800.065 1561.53 834.544 1561.5 844.698 L 1561.47 936.191 L 1561.48 1158.35 C 1561.49 1223.12 1563.1 1273.43 1555.18 1338.66 C 1543.07 1438.38 1492.19 1522.85 1403.96 1573.53 C 1389.59 1581.54 1351.57 1593.95 1335.48 1597.32 C 1277.16 1609.57 1212.37 1606.86 1152.84 1606.69 L 925.429 1604.55 C 867.434 1603.77 807.917 1609.44 749.881 1600.63 C 710.631 1594.67 662.373 1580.12 627.781 1557.5 C 576.905 1524.24 530.518 1462.2 511.825 1403.99 C 509.464 1396.64 508.959 1387.71 506.667 1380.21 C 503.135 1365.51 491.586 1333.79 493.964 1319.72 C 486.793 1264.98 488.358 1222.71 488.369 1167.81 L 488.422 996.724 L 488.412 851.689 C 488.283 805.435 486.009 744.02 496.596 699.918 z" class="svgShape colorgradient-17 selectable"></path><path fill="#C4C4C5" d="M 1560.18 791.415 C 1562.24 800.065 1561.53 834.544 1561.5 844.698 L 1561.47 936.191 L 1561.48 1158.35 C 1561.49 1223.12 1563.1 1273.43 1555.18 1338.66 C 1543.07 1438.38 1492.19 1522.85 1403.96 1573.53 C 1389.59 1581.54 1351.57 1593.95 1335.48 1597.32 C 1277.16 1609.57 1212.37 1606.86 1152.84 1606.69 L 925.429 1604.55 C 867.434 1603.77 807.917 1609.44 749.881 1600.63 C 710.631 1594.67 662.373 1580.12 627.781 1557.5 C 576.905 1524.24 530.518 1462.2 511.825 1403.99 C 509.464 1396.64 508.959 1387.71 506.667 1380.21 C 503.135 1365.51 491.586 1333.79 493.964 1319.72 C 504.695 1372.02 517.034 1411.07 550.443 1455.04 C 558.544 1465.7 568.476 1474.36 577.125 1484.23 C 580.095 1486.87 583.092 1489.48 586.115 1492.06 C 621.144 1521.59 663.026 1541.84 707.919 1550.98 C 764.831 1563.13 819.413 1560.95 877.162 1560.91 L 1033.81 1560.8 L 1178.6 1560.83 C 1307.81 1561 1405.29 1563.62 1497.73 1455.21 C 1555.92 1375.29 1559.98 1308.79 1560.09 1214.84 L 1560.15 1132.09 L 1560.02 910.752 C 1559.99 871.579 1559.36 830.454 1560.18 791.415 z" class="svgShape colorc4c4c5-18 selectable"></path><path fill="#A0A1A4" d="M 1497.73 1455.21 C 1493.21 1473.42 1445.43 1509.48 1428.81 1518.98 C 1389.9 1541.21 1366.7 1554.85 1321.6 1562.76 C 1270.99 1571.64 1229.51 1566.73 1179.45 1566.62 C 1141.39 1566.54 1104.22 1565.89 1066.35 1565.48 L 893.21 1564.23 C 881.085 1564.19 868.431 1565.97 856.492 1565.65 C 779.526 1563.6 695.024 1562.2 626.537 1522.61 C 612.096 1514.26 585.676 1498.96 577.125 1484.23 C 580.095 1486.87 583.092 1489.48 586.115 1492.06 C 621.144 1521.59 663.026 1541.84 707.919 1550.98 C 764.831 1563.13 819.413 1560.95 877.162 1560.91 L 1033.81 1560.8 L 1178.6 1560.83 C 1307.81 1561 1405.29 1563.62 1497.73 1455.21 z" class="svgShape colora0a1a4-19 selectable"></path><path fill="#59627C" d="M 496.596 699.918 C 497.623 690.784 500.722 680.16 503.3 671.424 C 535.79 561.349 627.434 497.676 738.825 486.002 C 780.595 481.624 818.524 481.816 860.856 481.805 L 1004.6 481.82 L 1171.17 481.814 C 1253.44 481.787 1337.85 477.833 1413.84 515.326 C 1452.95 534.622 1496.12 568.978 1516.61 608.286 C 1508.39 602.426 1494.89 576.814 1488.47 573.486 C 1485.21 577.059 1484.15 578.725 1479.97 580.913 L 1478.1 580.887 C 1480.65 582.454 1481.37 584.718 1482.7 587.321 L 1482.18 587.923 C 1402.67 495.883 1292.44 498.68 1182.32 498.743 L 1022.91 498.814 L 869.235 498.76 C 772.485 498.6 670.403 494.464 591.534 562.383 C 551.73 596.66 533.182 632.937 517.317 681.871 L 516.545 678.938 L 515.746 679.283 C 510.713 681.406 507.879 681.67 502.449 682.135 C 501.121 687.574 499.721 695.78 496.596 699.918 z" class="svgShape color59627c-20 selectable"></path><path fill="#0F225C" d="M 1023.75 638.065 C 1034.21 644.946 1046.91 652.914 1056.76 660.319 C 1083.78 670.2 1087.53 671.711 1110.22 689.407 C 1143.45 705.195 1173.49 717.995 1208.88 728.278 C 1229.73 734.336 1252.88 738.781 1273.03 745.122 C 1272.11 776.814 1275.84 832.042 1269.09 862.423 C 1256.77 978.499 1199.26 1085.06 1109 1159.07 C 1085.11 1178.71 1050.7 1201.19 1023.45 1215.83 C 937.384 1168.12 865.134 1103.48 822.261 1013.81 C 814.618 997.828 800.887 967.694 797.563 950.631 C 794.999 945.865 789.898 924.639 788.3 918.349 C 784.872 899.759 781.527 884.271 779.208 865.307 C 774.237 824.661 774.548 785.779 775.048 744.973 C 842.991 728.961 873.711 718.518 935.679 689.656 C 957.634 670.56 965.402 667.933 992.678 658.674 C 1002.07 652.581 1014.71 643.435 1023.75 638.065 z" class="svgShape color0f225c-21 selectable"></path><path fill="url(#b)" d="M 1110.22 689.407 C 1143.45 705.195 1173.49 717.995 1208.88 728.278 C 1229.73 734.336 1252.88 738.781 1273.03 745.122 C 1272.11 776.814 1275.84 832.042 1269.09 862.423 C 1256.77 978.499 1199.26 1085.06 1109 1159.07 C 1085.11 1178.71 1050.7 1201.19 1023.45 1215.83 C 937.384 1168.12 865.134 1103.48 822.261 1013.81 C 814.618 997.828 800.887 967.694 797.563 950.631 C 794.999 945.865 789.898 924.639 788.3 918.349 C 790 920.171 789.846 920.169 792.106 921.145 C 801.001 921.2 823.151 909.358 832.552 905.02 C 833.06 902.528 832.357 900.694 831.765 898.194 L 833.049 897.874 C 848.064 961.265 863.418 1005.13 905.278 1057.79 C 916.665 1072.12 931.161 1084.71 941.395 1097.17 C 972.539 1125.16 987.848 1136.24 1023.35 1158.9 C 1031.4 1154.01 1039.34 1148.94 1047.15 1143.68 C 1143.31 1079.26 1194.79 998.179 1217.05 885.798 C 1222.61 849.258 1224.51 821.383 1225.01 784.163 L 1223.88 783.848 C 1208.77 778.981 1192.04 776.252 1175.49 770.762 C 1163.5 766.787 1137.84 755.464 1128.04 753.209 C 1126.48 750.78 1126.68 750.849 1126.52 747.918 C 1127.78 739.131 1127.29 728.416 1124.61 719.948 C 1124.34 716.219 1122.32 711.437 1121.02 707.795 C 1118.04 701.422 1111.51 694.238 1110.22 689.407 z" class="svgShape colorgradient-22 selectable"></path><path fill="url(#c)" d="M 1261.05 868.525 C 1261.66 870.919 1261.28 870.151 1262.97 872.124 L 1264.85 871.817 C 1268.01 867.074 1265.64 867.074 1269.09 862.423 C 1256.77 978.499 1199.26 1085.06 1109 1159.07 C 1085.11 1178.71 1050.7 1201.19 1023.45 1215.83 C 937.384 1168.12 865.134 1103.48 822.261 1013.81 C 814.618 997.828 800.887 967.694 797.563 950.631 C 800.62 953.706 805.338 968.336 807.01 972.971 C 838.94 1061.47 900.465 1135.12 978.947 1186.51 C 992.096 1195.13 1009.73 1206.98 1023.87 1213.64 C 1032.89 1208.38 1041.89 1203.06 1050.85 1197.69 C 1056.87 1194.04 1095.06 1169.93 1096.06 1165.83 C 1094.96 1165.65 1093.86 1165.47 1092.76 1165.28 C 1082.7 1169.01 1043.94 1200.79 1035.42 1199.96 C 1049.06 1192.92 1085.8 1168.32 1097.31 1159.21 C 1188.29 1087.87 1247.2 983.305 1261.05 868.525 z" class="svgShape colorgradient-23 selectable"></path><path fill="#FEFEFD" d="M 1110.22 689.407 C 1143.45 705.195 1173.49 717.995 1208.88 728.278 C 1229.73 734.336 1252.88 738.781 1273.03 745.122 L 1265.94 752.487 C 1238.95 746.887 1205.47 736.891 1179.24 728.045 C 1169.45 728.221 1149.43 737.49 1139.95 742.137 C 1138.53 745.851 1138.79 747.396 1136.14 748.773 C 1134.25 748.526 1132.89 748.101 1131.18 748.516 L 1126.52 747.918 C 1127.78 739.131 1127.29 728.416 1124.61 719.948 C 1124.34 716.219 1122.32 711.437 1121.02 707.795 C 1118.04 701.422 1111.51 694.238 1110.22 689.407 z" class="svgShape colorfefefd-24 selectable"></path><path fill="#C4C4C5" d="M1121.02 707.795C1123.65 706.474 1123.9 705.999 1127.66 707.595 1144.86 714.907 1161.51 722.044 1179.24 728.045 1169.45 728.221 1149.43 737.49 1139.95 742.137 1138.53 745.851 1138.79 747.396 1136.14 748.773 1134.25 748.526 1132.89 748.101 1131.18 748.516L1126.52 747.918C1127.78 739.131 1127.29 728.416 1124.61 719.948 1124.34 716.219 1122.32 711.437 1121.02 707.795zM1217.05 885.798L1217.78 886.578C1208.34 980.188 1154.5 1064.17 1082.7 1122.96 1064.49 1137.87 1044.78 1151.83 1024.11 1163.13 1008.84 1153.17 944.082 1112.27 941.395 1097.17 972.539 1125.16 987.848 1136.24 1023.35 1158.9 1031.4 1154.01 1039.34 1148.94 1047.15 1143.68 1143.31 1079.26 1194.79 998.179 1217.05 885.798z" class="svgShape colorc4c4c5-25 selectable"></path><path fill="#A0A1A4" d="M1273.03 745.122C1272.11 776.814 1275.84 832.042 1269.09 862.423 1265.64 867.074 1268.01 867.074 1264.85 871.817L1262.97 872.124C1261.28 870.151 1261.66 870.919 1261.05 868.525 1266.4 823.902 1266.23 797.16 1265.94 752.487L1273.03 745.122zM1126.52 747.918L1131.18 748.516C1145.31 758.655 1184.29 767.713 1202.22 773.446 1206.9 774.941 1223.09 777.188 1225.49 780.005L1225.01 784.163 1223.88 783.848C1208.77 778.981 1192.04 776.252 1175.49 770.762 1163.5 766.787 1137.84 755.464 1128.04 753.209 1126.48 750.78 1126.68 750.849 1126.52 747.918z" class="svgShape colora0a1a4-26 selectable"></path><path fill="#FEFEFD" d="M 1023.75 638.065 C 1034.21 644.946 1046.91 652.914 1056.76 660.319 C 1083.78 670.2 1087.53 671.711 1110.22 689.407 C 1111.51 694.238 1118.04 701.422 1121.02 707.795 C 1122.32 711.437 1124.34 716.219 1124.61 719.948 L 1123.17 718.944 C 1120.68 712.155 1115.74 699.516 1110.53 694.783 L 1109.65 695.265 C 1110.35 702.049 1126.54 721.017 1120.8 725.956 C 1121.1 735.942 1122.08 748.419 1118.37 757.698 C 1115.99 765.269 1114.39 767.893 1110.33 774.749 C 1092.35 796.883 1071.02 807.659 1042.49 810.757 C 1027.9 812.269 1013.17 811.764 998.721 809.256 C 988.993 814.062 953.912 832.02 945.709 834.406 L 943.403 835.28 C 943.537 827.51 952.425 801.599 955.119 793.164 C 954.137 790.459 944.001 782.638 940.935 780.022 C 929.353 765.782 926.691 757.612 923.943 739.589 C 923.216 742.052 922.512 744.522 921.832 746.999 C 919.938 745.011 919.723 743.283 918.956 740.641 C 916.08 733.957 920.983 716.963 923.337 710.202 C 925.623 704.236 932.217 696.342 936.268 691.371 L 935.679 689.656 C 957.634 670.56 965.402 667.933 992.678 658.674 C 1002.07 652.581 1014.71 643.435 1023.75 638.065 z" class="svgShape colorfefefd-27 selectable"></path><path fill="#FEFEFD" d="M 1023.75 638.065 C 1034.21 644.946 1046.91 652.914 1056.76 660.319 C 1054.16 660.559 1040.42 658.255 1036.01 657.862 L 1034.26 658.016 L 1033.79 658.657 L 1032.56 658.818 C 1036.46 659.207 1038.41 658.605 1040.54 660.739 L 1039.46 661.975 C 1036.45 661.769 1034.89 661.654 1031.81 661.855 C 1032.03 663.367 1031.69 662.762 1032.7 663.73 C 1017.6 663.024 1008.25 664.934 997.122 664.722 C 988.675 662.47 984.538 667.832 975.837 667.045 L 975.664 666.259 C 980.941 664.599 987.512 661.989 992.96 662.043 L 994.122 660.713 L 992.678 658.674 C 1002.07 652.581 1014.71 643.435 1023.75 638.065 z" class="svgShape colorfefefd-28 selectable"></path><path fill="#5A6FC5" d="M 1016.95 656.826 L 1034.87 657.211 L 1036.01 657.862 L 1034.26 658.016 L 1033.79 658.657 L 1032.56 658.818 C 1036.46 659.207 1038.41 658.605 1040.54 660.739 L 1039.46 661.975 C 1036.45 661.769 1034.89 661.654 1031.81 661.855 C 1032.03 663.367 1031.69 662.762 1032.7 663.73 C 1017.6 663.024 1008.25 664.934 997.122 664.722 C 988.675 662.47 984.538 667.832 975.837 667.045 L 975.664 666.259 C 980.941 664.599 987.512 661.989 992.96 662.043 L 994.122 660.713 C 999.799 659.126 1010.72 657.771 1016.95 656.826 z" class="svgShape color5a6fc5-29 selectable"></path><path fill="#C4C4C5" d="M1025.85 649.346C1029.21 651.826 1032.53 653.821 1034.87 657.211L1016.95 656.826 1025.85 649.346zM997.879 805.201C1034.36 810.83 1073.86 807.585 1101.13 779.666 1107.37 773.279 1111.6 763.377 1118.37 757.698 1115.99 765.269 1114.39 767.893 1110.33 774.749 1092.35 796.883 1071.02 807.659 1042.49 810.757 1027.9 812.269 1013.17 811.764 998.721 809.256 988.993 814.062 953.912 832.02 945.709 834.406 946.52 832.227 947.722 829.99 949.796 828.852 964.679 820.684 982.685 812.654 997.879 805.201z" class="svgShape colorc4c4c5-30 selectable"></path><path fill="url(#d)" d="M 1036.01 657.862 C 1040.42 658.255 1054.16 660.559 1056.76 660.319 C 1083.78 670.2 1087.53 671.711 1110.22 689.407 C 1111.51 694.238 1118.04 701.422 1121.02 707.795 C 1122.32 711.437 1124.34 716.219 1124.61 719.948 L 1123.17 718.944 C 1120.68 712.155 1115.74 699.516 1110.53 694.783 L 1109.65 695.265 C 1110.35 702.049 1126.54 721.017 1120.8 725.956 C 1120.12 724.72 1118.63 719.729 1118.06 717.964 C 1106.44 681.81 1068.26 665.78 1032.7 663.73 C 1031.69 662.762 1032.03 663.367 1031.81 661.855 C 1034.89 661.654 1036.45 661.769 1039.46 661.975 L 1040.54 660.739 C 1038.41 658.605 1036.46 659.207 1032.56 658.818 L 1033.79 658.657 L 1034.26 658.016 L 1036.01 657.862 z" class="svgShape colorgradient-31 selectable"></path><path fill="#7B94DF" d="M 935.679 689.656 C 957.634 670.56 965.402 667.933 992.678 658.674 L 994.122 660.713 L 992.96 662.043 C 987.512 661.989 980.941 664.599 975.664 666.259 L 975.837 667.045 C 984.538 667.832 988.675 662.47 997.122 664.722 C 974.399 669.775 960.193 675.05 942.74 691.234 L 940.495 689.804 L 936.268 691.371 L 935.679 689.656 z" class="svgShape color7b94df-32 selectable"></path><path fill="#344891" d="M 923.337 710.202 L 924.704 714.342 C 926.36 714.918 925.554 714.68 927.117 715.076 L 927.575 715.711 C 925.155 724.804 924.214 730.055 923.943 739.589 C 923.216 742.052 922.512 744.522 921.832 746.999 C 919.938 745.011 919.723 743.283 918.956 740.641 C 916.08 733.957 920.983 716.963 923.337 710.202 z" class="svgShape color344891-33 selectable"></path><path fill="#5A6FC5" d="M 936.268 691.371 L 940.495 689.804 L 942.74 691.234 C 932.896 702.125 933.893 704.191 927.575 715.711 L 927.117 715.076 C 925.554 714.68 926.36 714.918 924.704 714.342 L 923.337 710.202 C 925.623 704.236 932.217 696.342 936.268 691.371 z" class="svgShape color5a6fc5-34 selectable"></path><path fill="#0F225C" d="M 945.252 705.87 C 958.945 683.018 995.447 673.573 1020.23 673.871 C 1048.32 674.209 1073.96 678.575 1094.63 698.825 C 1116.09 717.522 1117.01 753.324 1097 773.565 C 1069.84 801.034 1033.55 803.501 997.6 797.971 C 985.097 803.214 971.841 809.861 959.722 816.07 C 962.358 806.752 965.562 796.349 967.848 787.037 C 951.943 776.844 939.976 766.518 935.669 747.077 C 932.929 734.345 935.19 721.048 941.984 709.937 C 942.659 708.848 944.25 706.498 945.252 705.87 z" class="svgShape color0f225c-35 selectable"></path><path fill="#071032" d="M 945.252 705.87 C 958.945 683.018 995.447 673.573 1020.23 673.871 C 1048.32 674.209 1073.96 678.575 1094.63 698.825 L 1092.63 699.314 C 1089.56 696.936 1081.77 689.968 1078.51 688.544 C 1044.03 673.53 990.188 671.25 958.956 694.904 C 954.474 698.298 950.217 703.955 945.252 705.87 z" class="svgShape color071032-36 selectable"></path><path fill="#FEFEFD" d="M 1014.21 745.859 C 1010.67 741.588 1010.51 735.447 1013.83 730.998 C 1017.14 726.548 1023.08 724.947 1028.18 727.122 C 1033.29 729.297 1036.24 734.684 1035.33 740.158 L 1036.07 740.373 C 1038.74 749.155 1031.74 755.81 1024.9 760.317 C 1021.5 762.551 1013.67 749.899 1013.7 746.235 L 1014.21 745.859 z" class="svgShape colorfefefd-37 selectable"></path><path fill="#071039" d="M 1035.33 740.158 L 1036.07 740.373 C 1038.74 749.155 1031.74 755.81 1024.9 760.317 C 1021.5 762.551 1013.67 749.899 1013.7 746.235 L 1014.21 745.859 C 1017.22 749.481 1022.06 751.018 1026.6 749.791 C 1031.15 748.564 1034.56 744.8 1035.33 740.158 z" class="svgShape color071039-38 selectable"></path><path fill="#FEFEFD" d="M 975.98 746.001 C 972.226 741.494 972.31 734.926 976.178 730.516 C 980.045 726.106 986.546 725.166 991.505 728.299 C 996.463 731.432 998.405 737.708 996.082 743.094 C 999.115 754.702 976.109 759.396 975.98 746.001 z" class="svgShape colorfefefd-39 selectable"></path><path fill="#071032" d="M 996.082 743.094 C 999.115 754.702 976.109 759.396 975.98 746.001 C 978.631 749.185 982.745 750.763 986.844 750.17 C 990.944 749.577 994.442 746.898 996.082 743.094 z" class="svgShape color071032-40 selectable"></path><path fill="#FEFEFD" d="M 1063.87 749.723 C 1058.5 750.83 1053.06 748.139 1050.68 743.195 C 1048.3 738.25 1049.59 732.322 1053.81 728.813 C 1058.03 725.305 1064.09 725.118 1068.52 728.359 C 1072.95 731.6 1074.6 737.438 1072.53 742.519 L 1074.9 744.929 C 1073.14 749.772 1072.84 750.698 1067.68 752.424 C 1064.98 751.101 1065.68 751.834 1063.87 749.723 z" class="svgShape colorfefefd-41 selectable"></path><path fill="#071039" d="M 1072.53 742.519 L 1074.9 744.929 C 1073.14 749.772 1072.84 750.698 1067.68 752.424 C 1064.98 751.101 1065.68 751.834 1063.87 749.723 C 1067.78 748.918 1071.03 746.216 1072.53 742.519 z" class="svgShape color071039-42 selectable"></path><path fill="url(#e)" d="M 935.679 689.656 L 936.268 691.371 C 932.217 696.342 925.623 704.236 923.337 710.202 C 920.983 716.963 916.08 733.957 918.956 740.641 L 919.336 747.089 L 920.071 751.716 C 882.21 770.196 860.982 773.484 822.236 784.806 L 823.048 789.351 C 822.832 831.087 827.156 857.776 833.049 897.874 L 831.765 898.194 C 832.357 900.694 833.06 902.528 832.552 905.02 C 823.151 909.358 801.001 921.2 792.106 921.145 C 789.846 920.169 790 920.171 788.3 918.349 C 784.872 899.759 781.527 884.271 779.208 865.307 C 774.237 824.661 774.548 785.779 775.048 744.973 C 842.991 728.961 873.711 718.518 935.679 689.656 z" class="svgShape colorgradient-43 selectable"></path><path fill="#C4C4C5" d="M 919.336 747.089 L 920.071 751.716 C 882.21 770.196 860.982 773.484 822.236 784.806 C 821.01 782.683 821.387 783.819 821.565 781.239 C 826.448 777.164 843.876 775.216 851.605 772.735 C 876.121 764.868 895.978 758.206 919.336 747.089 z" class="svgShape colorc4c4c5-44 selectable"></path><path fill="#071039" d="M1110.33 774.749L1111.14 776.571C1102.24 790.88 1080.21 804.787 1063.97 808.775 1057.71 810.313 1047.4 811.923 1040.81 813.079L1040.28 813.941C1052.42 814.823 1075.96 806.557 1086.48 801.013L1087.27 801.677C1084.43 805.627 1081.21 805.655 1080.63 807.975 1086.62 806.706 1092.12 800.618 1097.47 799.974 1096.97 801.972 1091.87 804.672 1089.98 805.825 1050.91 829.617 1015.01 811.987 989.972 823.959 980.743 828.371 958.235 845.387 948.689 843.168 947.09 842.796 946.054 841.932 945.1 840.589 944.216 839.346 943.492 836.803 943.403 835.28L945.709 834.406C953.912 832.02 988.993 814.062 998.721 809.256 1013.17 811.764 1027.9 812.269 1042.49 810.757 1071.02 807.659 1092.35 796.883 1110.33 774.749zM920.071 751.716C920.766 755.235 920.914 755.184 920.169 758.87 909.373 773.447 847.111 787.319 828.748 792.926 828.33 793.758 827.912 794.59 827.494 795.422L824.759 791.83 825.341 794.213C823.498 792.145 823.707 792.106 823.048 789.351L822.236 784.806C860.982 773.484 882.21 770.196 920.071 751.716zM1223.88 783.848C1223.98 786.472 1224.27 786.662 1222.99 788.854L1222.35 788.743 1223.6 790.695 1221.97 788.759C1209.86 787.685 1203.31 783.476 1191.2 783.662 1194.09 785.613 1203.6 787.358 1208.49 789.171L1207.96 790.282C1206.14 790.27 1206.48 790.457 1205.05 789.903 1187.52 783.108 1150.25 776.501 1136.67 764.678L1138.05 763.276C1135.17 761.62 1133.36 760.819 1131.07 758.365L1131.84 757.73C1149.54 765.908 1164.83 769.282 1182.07 776.411L1183.18 776.882 1184.26 775.93C1167.87 768.286 1147.27 764.309 1128.02 754.416L1128.04 753.209C1137.84 755.464 1163.5 766.787 1175.49 770.762 1192.04 776.252 1208.77 778.981 1223.88 783.848zM940.935 780.022C944.001 782.638 954.137 790.459 955.119 793.164 948.819 793.809 940.697 786.612 940.935 780.022z" class="svgShape color071039-45 selectable"></path><path fill="#5A6FC5" d="M 1027.63 947.76 C 1031.36 947.994 1035.99 948.146 1039.62 948.595 C 1053.05 951.226 1064.75 954.716 1074.61 965.045 C 1082.09 970.118 1084.09 980.571 1086.6 988.741 L 1087.54 986.717 C 1090.28 998.744 1090.51 1062.96 1084.73 1073.88 C 1080.55 1077.05 1077.58 1076.91 1072.58 1076.24 C 1067.35 1072.75 1064.42 1069.2 1061.1 1063.87 L 1061.08 1063.12 C 1063.15 1063.24 1062.13 1063.15 1064.15 1063.4 C 1064.1 1055.51 1064.71 1002.77 1063.06 998.701 L 1061.45 998.344 C 1057.08 1006.05 1063.25 1061.86 1058.65 1071.61 L 1057.73 1071.26 C 1057.71 1068.99 1058.12 1067.28 1057.13 1065.65 C 1035.51 1064.58 1012.31 1065.11 990.61 1065.31 C 991.284 1070.43 993.342 1064.35 992.78 1070.78 L 991.489 1071.09 C 984.556 1063.96 988.53 1012.97 987.766 999.653 L 985.021 998.028 L 983.47 998.972 C 982.354 1004.85 982.948 1057.42 983.447 1065.53 C 978.957 1065.35 965.625 1064.34 962.175 1066.12 L 961.96 1071.12 L 961.208 1071.05 C 958.023 1066.2 958.088 1005.77 959.231 997.554 L 959.635 997.471 L 960.391 1002.04 C 960.625 997.386 960.778 993.89 961.46 989.239 C 961.889 986.719 962.619 984.192 963.258 981.703 C 964.616 977.684 966.558 973.885 969.02 970.429 C 979.112 956.308 994.118 951.139 1010.28 948.145 L 1027.63 947.76 z" class="svgShape color5a6fc5-46 selectable"></path><path fill="#071032" d="M 1086.6 988.741 L 1087.54 986.717 C 1090.28 998.744 1090.51 1062.96 1084.73 1073.88 C 1080.55 1077.05 1077.58 1076.91 1072.58 1076.24 C 1067.35 1072.75 1064.42 1069.2 1061.1 1063.87 L 1061.08 1063.12 C 1063.15 1063.24 1062.13 1063.15 1064.15 1063.4 C 1064.1 1055.51 1064.71 1002.77 1063.06 998.701 L 1061.45 998.344 C 1057.08 1006.05 1063.25 1061.86 1058.65 1071.61 L 1057.73 1071.26 C 1057.71 1068.99 1058.12 1067.28 1057.13 1065.65 C 1035.51 1064.58 1012.31 1065.11 990.61 1065.31 C 991.284 1070.43 993.342 1064.35 992.78 1070.78 L 991.489 1071.09 C 984.556 1063.96 988.53 1012.97 987.766 999.653 L 985.021 998.028 L 983.47 998.972 C 982.354 1004.85 982.948 1057.42 983.447 1065.53 C 978.957 1065.35 965.625 1064.34 962.175 1066.12 L 961.96 1071.12 L 961.208 1071.05 C 958.023 1066.2 958.088 1005.77 959.231 997.554 L 959.635 997.471 L 960.391 1002.04 C 959.922 1011.88 959.839 1052.75 961.817 1061.55 C 965.54 1064.92 976.33 1063.74 981.572 1063.58 C 981.516 1055.76 980.303 1001.1 982.25 998.017 C 985.018 996.679 984.953 996.943 988.058 997.474 C 990.422 1002.63 989.074 1052.93 989.457 1063.04 L 1058.37 1063.08 C 1058.83 1050.89 1056.99 1006.97 1058.96 998.568 C 1061.38 996.2 1059.86 997.086 1064.27 996.966 C 1067.18 999.717 1065.69 1054.49 1066.11 1063.65 C 1074.76 1063.72 1078.27 1063.59 1086.79 1062.36 C 1087.86 1041.63 1087.95 1008.89 1086.6 988.741 z" class="svgShape color071032-47 selectable"></path><path fill="#BCC8F9" d="M 1027.63 947.76 C 1031.36 947.994 1035.99 948.146 1039.62 948.595 C 1053.05 951.226 1064.75 954.716 1074.61 965.045 L 1073.35 966.266 C 1047.03 942.083 984.822 944.512 966.925 978.9 L 963.258 981.703 C 964.616 977.684 966.558 973.885 969.02 970.429 C 979.112 956.308 994.118 951.139 1010.28 948.145 L 1027.63 947.76 z" class="svgShape colorbcc8f9-48 selectable"></path><path fill="#7B94DF" d="M 966.925 978.9 C 965.946 982.027 964.308 988.722 962.275 990.776 L 961.46 989.239 C 961.889 986.719 962.619 984.192 963.258 981.703 L 966.925 978.9 z" class="svgShape color7b94df-49 selectable"></path><path fill="#45F0F4" d="M 1078.93 960.164 L 1078.14 958.029 C 1082.98 952.971 1100.12 951.414 1106.97 951.258 C 1123.28 950.887 1140.58 952.71 1152.86 964.639 C 1166.74 976.508 1169.2 1002.89 1161.41 1018.84 L 1162.2 1019.86 C 1157.3 1028.42 1151.15 1038.27 1142.03 1041.26 C 1138.62 1042.37 1141.98 1051.48 1135.29 1057.75 C 1124.4 1067.97 1103.83 1065.35 1089.5 1065.03 L 1089.05 1063.52 L 1092.08 1062.32 C 1095 1054.22 1090.57 1002.97 1093.81 993.473 C 1094.74 982.046 1087.83 967.212 1078.93 960.164 z" class="svgShape color45f0f4-50 selectable"></path><path fill="#071032" d="M 1161.41 1018.84 L 1162.2 1019.86 C 1157.3 1028.42 1151.15 1038.27 1142.03 1041.26 C 1138.62 1042.37 1141.98 1051.48 1135.29 1057.75 C 1124.4 1067.97 1103.83 1065.35 1089.5 1065.03 L 1089.05 1063.52 L 1092.08 1062.32 C 1095 1054.22 1090.57 1002.97 1093.81 993.473 C 1095.25 1015.27 1094.76 1041.14 1094.79 1063.24 C 1104.56 1063.25 1114.31 1063.42 1124.05 1062.67 C 1130.99 1058.17 1133.76 1055.04 1138.65 1048.33 C 1138.85 1034.65 1138.87 1020.97 1138.73 1007.29 L 1146.45 1009.23 L 1145.98 1039.21 C 1147.94 1036.54 1159.84 1020.18 1161.41 1018.84 z" class="svgShape color071032-51 selectable"></path><path fill="#FEFEFD" d="M 1078.93 960.164 L 1078.14 958.029 C 1082.98 952.971 1100.12 951.414 1106.97 951.258 C 1123.28 950.887 1140.58 952.71 1152.86 964.639 C 1147.88 964.902 1144.41 961.193 1139.49 959.437 C 1119.13 952.163 1098.94 954.442 1078.93 960.164 z" class="svgShape colorfefefd-52 selectable"></path><path fill="#010217" d="M 1138.73 1007.29 C 1138.64 1003.36 1138.01 1000.66 1140.3 997.651 L 1142.28 996.545 C 1145.53 997.705 1144.12 996.771 1146.38 999.827 C 1146.92 1003.72 1146.71 1005.25 1146.45 1009.23 L 1138.73 1007.29 z" class="svgShape color010217-53 selectable"></path><path fill="#45F0F4" d="M 885.493 978.741 C 892.826 957.792 914.396 950.532 934.904 950.857 C 942.596 950.978 965.92 951.247 969.769 958.785 C 958.83 968.911 952.403 981.724 952.737 996.556 C 953.163 1015.45 951.704 1042.03 953.244 1060.14 C 952.859 1061.79 953.2 1060.88 951.934 1062.77 C 941.356 1065.4 923.024 1064.66 914.984 1056.45 L 909.031 1049.04 C 908.615 1041.88 908.721 1033.53 908.646 1026.26 C 906.949 1028.4 907.584 1041.66 907.613 1045.41 L 906.788 1045.86 C 907.23 1039.27 905.195 1043.4 901.91 1040.39 C 902.623 1033.31 902.599 1022.36 901.173 1015.44 C 900.934 1023 901.069 1031.32 901.03 1038.94 C 886.571 1019.92 875.679 1003.86 885.493 978.741 z" class="svgShape color45f0f4-54 selectable"></path><path fill="#FEFEFD" d="M 885.493 978.741 C 892.826 957.792 914.396 950.532 934.904 950.857 C 942.596 950.978 965.92 951.247 969.769 958.785 C 962.737 958.665 955.926 956.843 948.961 955.887 C 923.708 952.421 901.508 955.477 887.407 978.969 L 885.493 978.741 z" class="svgShape colorfefefd-55 selectable"></path><path fill="#071032" d="M 901.173 1015.44 C 900.948 1009.51 900.291 1003.45 901.677 997.77 L 902.876 996.658 C 906.37 996.852 906.621 996.213 908.501 998.067 C 909.836 1004.92 908.783 1018.71 908.646 1026.26 C 906.949 1028.4 907.584 1041.66 907.613 1045.41 L 906.788 1045.86 C 907.23 1039.27 905.195 1043.4 901.91 1040.39 C 902.623 1033.31 902.599 1022.36 901.173 1015.44 z" class="svgShape color071032-56 selectable"></path><path fill="#2AC3CB" d="M 914.984 1056.45 C 929.588 1059.45 939.652 1058.26 953.244 1060.14 C 952.859 1061.79 953.2 1060.88 951.934 1062.77 C 941.356 1065.4 923.024 1064.66 914.984 1056.45 z" class="svgShape color2ac3cb-57 selectable"></path><path fill="#5A6FC5" d="M 989.89 901.736 C 992.211 891.7 996.804 883.847 1005.79 878.316 C 1014.08 873.327 1024.02 871.854 1033.4 874.225 C 1041.7 876.368 1048.03 881.283 1052.32 888.646 C 1056.7 893.884 1057.94 901.771 1058.11 908.455 C 1057.25 918.752 1056.9 920.301 1051.37 929.07 L 1052.15 930.49 C 1049.01 933.927 1040.72 939.913 1040.45 941.42 C 1042.04 944.443 1042.65 944.408 1042.53 947.36 L 1039.62 948.595 C 1035.99 948.146 1031.36 947.994 1027.63 947.76 L 1010.28 948.145 C 1006.56 948.107 1001.59 947.909 999.576 944.17 L 1006.28 944.851 L 1006.17 943.922 C 995.151 938.012 995.078 936.348 990.91 925.294 L 991.497 924.347 L 994.802 927.436 L 994.972 925.566 C 990.047 917.669 987.983 910.849 989.89 901.736 z" class="svgShape color5a6fc5-58 selectable"></path><path fill="#071032" d="M 1010.28 948.145 C 1006.56 948.107 1001.59 947.909 999.576 944.17 L 1006.28 944.851 L 1006.17 943.922 C 995.151 938.012 995.078 936.348 990.91 925.294 L 991.497 924.347 L 994.802 927.436 C 999.817 932.312 1002.89 935.307 1008.49 939.528 C 1027.77 944.402 1037.21 943.393 1051.37 929.07 L 1052.15 930.49 C 1049.01 933.927 1040.72 939.913 1040.45 941.42 C 1042.04 944.443 1042.65 944.408 1042.53 947.36 L 1039.62 948.595 C 1035.99 948.146 1031.36 947.994 1027.63 947.76 L 1010.28 948.145 z" class="svgShape color071032-59 selectable"></path><path fill="#071039" d="M 1010.28 948.145 C 1006.56 948.107 1001.59 947.909 999.576 944.17 L 1006.28 944.851 L 1006.17 943.922 C 995.151 938.012 995.078 936.348 990.91 925.294 L 991.497 924.347 L 994.802 927.436 C 999.817 932.312 1002.89 935.307 1008.49 939.528 L 1008.24 940.592 C 1011.97 941.796 1015.04 942.749 1018.84 943.703 L 1017.97 944.922 C 1014.76 944.664 1013.84 944.58 1010.58 943.841 L 1008.97 944.52 C 1008.97 944.521 1008.97 944.521 1008.97 944.521 C 1012.29 946.904 1020.66 945.521 1027.63 947.76 L 1010.28 948.145 z" class="svgShape color071039-60 selectable"></path><path fill="#344891" d="M 994.972 925.566 C 1001.21 926.401 1002.95 933.344 1014.22 936.641 C 1022.7 939.197 1031.86 938.137 1039.54 933.71 C 1048.95 928.292 1055.21 918.75 1058.11 908.455 C 1057.25 918.752 1056.9 920.301 1051.37 929.07 C 1037.21 943.393 1027.77 944.402 1008.49 939.528 C 1002.89 935.307 999.817 932.312 994.802 927.436 L 994.972 925.566 z" class="svgShape color344891-61 selectable"></path><path fill="#BCC8F9" d="M 989.89 901.736 C 992.211 891.7 996.804 883.847 1005.79 878.316 C 1014.08 873.327 1024.02 871.854 1033.4 874.225 C 1041.7 876.368 1048.03 881.283 1052.32 888.646 C 1050.08 887.742 1050.15 887.731 1048.45 886.046 C 1041.31 878.968 1032.2 875.405 1022.11 876.164 C 1013.08 876.858 1004.72 881.165 998.905 888.11 C 994.177 893.67 992.012 899.181 990.701 906.237 C 989.913 903.722 990.083 904.373 989.89 901.736 z" class="svgShape colorbcc8f9-62 selectable"></path><path fill="#45F0F4" d="M 909.083 907.008 C 912.502 896.526 921.337 888.723 932.16 886.624 C 942.984 884.524 954.095 888.459 961.184 896.903 C 970.574 908.086 970.67 924.37 961.413 935.663 C 952.156 946.956 936.169 950.057 923.361 943.043 C 910.553 936.03 904.555 920.89 909.083 907.008 z" class="svgShape color45f0f4-63 selectable"></path><path fill="#FEFEFD" d="M 909.083 907.008 C 912.502 896.526 921.337 888.723 932.16 886.624 C 942.984 884.524 954.095 888.459 961.184 896.903 C 957.848 896.889 957.758 896.202 955.182 894.484 C 942.849 886.255 929.964 886.565 918.878 896.679 C 915.448 899.808 912.103 904.546 909.083 907.008 z" class="svgShape colorfefefd-64 selectable"></path><path fill="#45F0F4" d="M 1080.66 906.764 C 1084.09 896.793 1092.46 889.324 1102.76 887.039 C 1113.05 884.754 1123.8 887.982 1131.13 895.563 C 1141.5 906.287 1142.52 922.961 1133.55 934.878 C 1124.58 946.795 1108.27 950.415 1095.1 943.413 C 1081.92 936.411 1075.8 920.868 1080.66 906.764 z" class="svgShape color45f0f4-65 selectable"></path><path fill="#FEFEFD" d="M1080.66 906.764C1084.09 896.793 1092.46 889.324 1102.76 887.039 1113.05 884.754 1123.8 887.982 1131.13 895.563 1121.76 895.118 1111.64 882.694 1096.59 892.026 1089.75 896.264 1085.21 903.917 1080.66 906.764zM860.184 1338.3C848.83 1328.33 845.652 1308.01 853.301 1295 862.166 1279.74 880.246 1273.45 897.242 1273.49 924.892 1273.56 941.906 1280.34 948.747 1308.77 939.562 1311.21 930.421 1313.81 921.329 1316.57 919.898 1311.75 918.905 1309.46 916.799 1304.87 906.514 1294.89 892.974 1294.62 882.297 1304.1 881.431 1307.93 880.198 1312.04 882.323 1315.71 892.507 1333.31 960.154 1324.22 951.037 1376.52 950.722 1378.33 950.716 1378.22 950.263 1379.69 941.184 1414.07 883.68 1418.71 861.053 1399.5 851.133 1392.16 847.905 1382.73 844.693 1371.56 853.18 1368.97 864.338 1366.57 873.124 1364.42 873.531 1366.19 873.997 1367.95 874.52 1369.69 881.577 1392.49 927.306 1391.12 916.78 1364.26 903.339 1351.1 879.134 1354.76 860.184 1338.3z" class="svgShape colorfefefd-66 selectable"></path><path fill="#C4C4C5" d="M861.053 1399.5C864.653 1398.51 882.987 1405.13 890.61 1405.77 907.223 1407.45 926.601 1406.12 938.585 1392.98 942.382 1388.82 945.76 1382.78 950.263 1379.69 941.184 1414.07 883.68 1418.71 861.053 1399.5zM860.184 1338.3C864.402 1337.21 905.867 1352.3 911.996 1355.07 914.236 1356.08 916.434 1358.22 917.586 1360.49 917.336 1361.99 917.3 1362.84 916.78 1364.26 903.339 1351.1 879.134 1354.76 860.184 1338.3zM882.297 1304.1C882.196 1301.18 881.616 1299.92 884.207 1297.69 892.498 1290.55 916.586 1290.26 916.799 1304.87 906.514 1294.89 892.974 1294.62 882.297 1304.1z" class="svgShape colorc4c4c5-67 selectable"></path><path fill="#FEFEFD" d="M 1091.87 1276.34 C 1101.73 1275.92 1112.8 1276.11 1122.75 1276.05 C 1122.59 1293.95 1118.95 1368.22 1128.92 1378.9 C 1132.67 1382.92 1138.2 1384.08 1143.5 1384.09 C 1149.36 1384.09 1155.61 1382.26 1159.71 1377.89 C 1163.33 1374.05 1164.52 1368.72 1165.29 1363.65 C 1166.99 1352.37 1166.17 1340.37 1166.12 1328.94 L 1166 1276.49 C 1175.77 1276.07 1186.36 1276.16 1196.2 1276.06 C 1195.91 1302.47 1201.1 1370.49 1188.78 1390.34 C 1173.97 1413.89 1132.01 1415.8 1110.35 1401.84 C 1107.59 1400.05 1105.11 1397.86 1102.99 1395.34 C 1089.76 1382.55 1091.85 1350.44 1091.84 1333.15 L 1091.87 1276.34 z" class="svgShape colorfefefd-68 selectable"></path><path fill="#C4C4C5" d="M 1102.99 1395.34 C 1107.67 1395.67 1124.11 1404.36 1133.14 1405.78 C 1145.97 1407.93 1161.9 1405.19 1173.82 1400.26 C 1178.54 1398.31 1181.58 1391.72 1188.78 1390.34 C 1173.97 1413.89 1132.01 1415.8 1110.35 1401.84 C 1107.59 1400.05 1105.11 1397.86 1102.99 1395.34 z" class="svgShape colorc4c4c5-69 selectable"></path><path fill="#FEFEFD" d="M 1047.97 1276.36 C 1057.84 1275.83 1069.34 1276.05 1079.33 1276.01 C 1075.92 1286.16 1072.34 1296.24 1068.58 1306.26 L 1032.75 1407.95 C 1022.08 1407.81 1011.25 1407.91 1000.57 1407.91 C 989.709 1377.61 980.706 1346.03 970.093 1315.57 C 965.68 1302.9 961 1289.11 957.53 1276.24 C 968.622 1276.03 980.028 1276.1 991.147 1276.04 C 998.71 1305.55 1009.51 1337.87 1017.86 1367.68 C 1028.26 1337.36 1038.29 1306.91 1047.97 1276.36 z" class="svgShape colorfefefd-70 selectable"></path></svg></g></svg>