<svg xmlns="http://www.w3.org/2000/svg" xml:space="preserve" width="1956.461" height="400mm" display="block" style="shape-rendering:geometricPrecision;text-rendering:geometricPrecision;image-rendering:optimizeQuality;fill-rule:evenodd;clip-rule:evenodd" viewBox="0 0 517.647 400"><defs><linearGradient id="id0" x1="276.876" x2="278.152" y1="53.282" y2="41.795" gradientUnits="userSpaceOnUse"><stop offset="0" style="stop-opacity:1;stop-color:#27478a"/><stop offset="1" style="stop-opacity:1;stop-color:#465cb7"/></linearGradient><linearGradient id="id1" x1="200.058" x2="160.757" y1="128.581" y2="68.673" gradientUnits="userSpaceOnUse"><stop offset="0" style="stop-opacity:1;stop-color:#cacacb"/><stop offset="1" style="stop-opacity:1;stop-color:#fcfcfc"/></linearGradient><linearGradient id="id2" x1="342.34" x2="306.103" y1="237.898" y2="157.254" gradientUnits="userSpaceOnUse"><stop offset="0" style="stop-opacity:1;stop-color:#737274"/><stop offset="1" style="stop-opacity:1;stop-color:#9f9fa4"/></linearGradient><linearGradient id="id3" x1="316.711" x2="246.979" y1="253.766" y2="103.492" gradientUnits="userSpaceOnUse"><stop offset="0" style="stop-opacity:1;stop-color:#99989a"/><stop offset="1" style="stop-opacity:1;stop-color:#d0cfd0"/></linearGradient><style>.fil11{fill:#071032}.fil1,.fil10,.fil11,.fil12{fill-rule:nonzero}.fil12{fill:#071039}.fil1{fill:#0f225c}.fil10{fill:#344891}.fil15{fill:#45f0f4}.fil15,.fil7,.fil9{fill-rule:nonzero}.fil7{fill:#5a6fc5}.fil9{fill:#7b94df}.fil14{fill:#bcc8f9}.fil14,.fil4,.fil5{fill-rule:nonzero}.fil5{fill:#c4c4c5}.fil4{fill:#fefefd}</style></defs><g id="Layer_x0020_1"><g id="_1768289102560"><path d="M74.177 78.534c.359-3.185 1.439-6.891 2.337-9.937 11.33-38.385 43.29-60.59 82.134-64.66 14.565-1.528 27.792-1.46 42.555-1.465l50.127.006 58.087-.001c28.69-.01 58.125-1.39 84.623 11.685 13.64 6.73 28.693 18.71 35.84 32.418 2.2 3.16 4.483 8.074 5.993 11.601 7.188 16.79 9.154 34.197 9.2 52.26.718 3.016.47 15.04.46 18.581l-.01 31.906.002 77.472c.005 22.587.567 40.13-2.196 62.878-4.222 34.774-21.966 64.231-52.733 81.905-5.012 2.792-18.27 7.12-23.882 8.295-20.337 4.272-42.93 3.328-63.69 3.269l-79.303-.748c-20.224-.272-40.98 1.706-61.219-1.366-13.686-2.078-30.515-7.153-42.578-15.04-17.742-11.6-33.918-33.234-40.436-53.533-.824-2.564-1-5.677-1.799-8.293-1.231-5.125-5.259-16.187-4.43-21.094-2.501-19.088-1.955-33.83-1.95-52.975l.017-59.662-.003-50.576c-.045-16.13-.837-37.547 2.854-52.926" style="fill:#393185;fill-rule:nonzero"/><path d="M255.876 30.44c4.609 3.032 10.204 6.543 14.544 9.805 11.905 4.355 13.558 5.02 23.555 12.817 14.641 6.956 27.877 12.596 43.47 17.127 9.186 2.669 19.386 4.627 28.265 7.421-.406 13.963 1.237 38.297-1.736 51.683a195.75 195.75 0 0 1-70.537 130.704c-10.526 8.653-25.687 18.558-37.694 25.008-37.92-21.02-69.753-49.501-88.644-89.01-3.367-7.042-9.417-20.32-10.881-27.837-1.13-2.1-3.378-11.452-4.082-14.224-1.51-8.19-2.984-15.015-4.006-23.37-2.19-17.909-2.054-35.04-1.833-53.02 29.936-7.054 43.471-11.656 70.774-24.372 9.674-8.415 13.096-9.572 25.114-13.651 4.138-2.685 9.707-6.715 13.69-9.08" class="fil1"/><path d="M293.975 53.062c14.641 6.956 27.877 12.596 43.47 17.127 9.186 2.669 19.386 4.627 28.265 7.421-.406 13.963 1.237 38.297-1.736 51.683a195.75 195.75 0 0 1-70.537 130.704c-10.526 8.653-25.687 18.558-37.694 25.008-37.92-21.02-69.753-49.501-88.644-89.01-3.367-7.042-9.417-20.32-10.881-27.837-1.13-2.1-3.378-11.452-4.082-14.224.75.803.68.803 1.677 1.232 3.92.024 13.678-5.193 17.82-7.105.224-1.097-.086-1.906-.346-3.008l.566-.14c6.615 27.93 13.38 47.257 31.824 70.46 5.017 6.313 11.404 11.86 15.913 17.35 13.722 12.333 20.467 17.215 36.11 27.198a265 265 0 0 0 10.486-6.706c42.369-28.382 65.05-64.107 74.858-113.623 2.45-16.099 3.288-28.381 3.508-44.78l-.499-.139c-6.657-2.144-14.028-3.348-21.32-5.766-5.283-1.751-16.59-6.74-20.907-7.734-.687-1.07-.6-1.04-.669-2.331.554-3.871.339-8.593-.842-12.324-.118-1.643-1.009-3.75-1.582-5.354-1.313-2.809-4.19-5.974-4.758-8.102" style="fill:url(#id3);fill-rule:nonzero"/><path d="M360.43 131.981c.27 1.055.102.717.847 1.586l.828-.135c1.393-2.09.348-2.09 1.869-4.139a195.75 195.75 0 0 1-70.537 130.704c-10.526 8.653-25.687 18.558-37.694 25.008-37.92-21.02-69.753-49.502-88.644-89.01-3.367-7.042-9.417-20.32-10.881-27.837 1.346 1.355 3.424 7.8 4.161 9.843 14.07 38.992 41.177 71.443 75.757 94.086 5.793 3.797 13.563 9.018 19.793 11.953 3.974-2.318 7.94-4.661 11.887-7.027 2.653-1.608 19.479-12.232 19.92-14.038q-.728-.117-1.454-.242c-4.432 1.643-21.51 15.645-25.264 15.28 6.01-3.102 22.197-13.941 27.268-17.954a192 192 0 0 0 72.145-128.078z" style="fill:url(#id2);fill-rule:nonzero"/><path d="M293.975 53.062c14.641 6.956 27.877 12.596 43.47 17.127 9.186 2.669 19.386 4.627 28.265 7.421l-3.124 3.245c-11.892-2.468-26.643-6.872-38.2-10.77-4.314.078-13.135 4.162-17.311 6.21-.627 1.636-.512 2.317-1.68 2.923-.832-.109-1.431-.296-2.186-.112l-2.052-.264c.554-3.871.339-8.593-.842-12.324-.118-1.643-1.009-3.75-1.582-5.354-1.313-2.809-4.19-5.974-4.758-8.102" class="fil4"/><path d="M298.733 61.164c1.16-.582 1.27-.792 2.926-.089 7.578 3.223 14.914 6.367 22.726 9.01-4.313.078-13.134 4.162-17.31 6.21-.627 1.636-.512 2.317-1.68 2.923-.832-.108-1.431-.296-2.186-.112l-2.052-.264c.554-3.871.339-8.593-.842-12.324-.118-1.643-1.009-3.75-1.582-5.354m42.311 78.428.322.344c-4.16 41.245-27.881 78.247-59.516 104.15-8.024 6.57-16.708 12.721-25.815 17.7-6.729-4.39-35.26-22.409-36.445-29.063 13.722 12.333 20.468 17.215 36.11 27.199a265 265 0 0 0 10.486-6.707c42.369-28.382 65.05-64.107 74.858-113.623" class="fil5"/><path d="M365.71 77.61c-.406 13.963 1.237 38.297-1.736 51.683-1.52 2.049-.476 2.049-1.869 4.139l-.828.135c-.745-.87-.578-.53-.846-1.586 2.357-19.66 2.283-31.442 2.155-51.126zm-64.553 1.232 2.052.264c6.227 4.467 23.401 8.457 31.3 10.983 2.064.66 9.196 1.65 10.254 2.89l-.211 1.833-.499-.139c-6.657-2.144-14.028-3.347-21.32-5.765-5.283-1.752-16.59-6.741-20.907-7.734-.687-1.071-.6-1.04-.669-2.332" style="fill:#a0a1a4;fill-rule:nonzero"/><path d="M255.876 30.44c4.609 3.032 10.204 6.543 14.544 9.805 11.905 4.355 13.558 5.02 23.555 12.817.568 2.128 3.445 5.293 4.758 8.102.573 1.605 1.464 3.711 1.582 5.354l-.635-.442c-1.096-2.991-3.273-8.56-5.569-10.646l-.387.212c.308 2.99 7.441 11.347 4.912 13.524.133 4.399.565 9.896-1.07 13.985-1.048 3.336-1.754 4.492-3.542 7.513-7.923 9.753-17.32 14.5-29.89 15.865a70.4 70.4 0 0 1-19.287-.662c-4.285 2.118-19.742 10.03-23.356 11.082l-1.016.385c.059-3.423 3.975-14.84 5.161-18.556-.432-1.193-4.897-4.639-6.249-5.791-5.102-6.274-6.276-9.874-7.486-17.815q-.48 1.629-.93 3.265c-.835-.876-.93-1.637-1.268-2.8-1.267-2.946.893-10.434 1.93-13.413 1.008-2.629 3.913-6.107 5.699-8.296l-.26-.756c9.673-8.415 13.095-9.572 25.113-13.651 4.138-2.685 9.707-6.714 13.69-9.08z" class="fil4"/><path d="M255.876 30.44c4.609 3.032 10.204 6.543 14.544 9.805-1.145.106-7.2-.91-9.142-1.082l-.772.068-.206.282-.542.071c1.718.17 2.578-.094 3.516.846l-.476.545c-1.327-.09-2.014-.141-3.37-.052.096.665-.054.399.391.825-6.653-.31-10.773.53-15.676.437-3.72-.992-5.544 1.37-9.378 1.024l-.075-.347c2.324-.73 5.22-1.881 7.62-1.856l.511-.587-.636-.898c4.138-2.685 9.707-6.715 13.69-9.08" class="fil4"/><path d="m252.88 38.706 7.895.17.503.287-.772.068-.206.282-.542.071c1.718.17 2.578-.094 3.516.846l-.476.545c-1.327-.09-2.014-.141-3.37-.052.096.665-.054.399.391.825-6.653-.31-10.773.53-15.676.437-3.72-.992-5.544 1.37-9.378 1.024l-.076-.347c2.325-.73 5.22-1.881 7.62-1.856l.512-.587c2.502-.7 7.314-1.296 10.059-1.713" class="fil7"/><path d="M256.8 35.41c1.481 1.093 2.945 1.972 3.975 3.466l-7.895-.17zm-12.323 68.67c16.074 2.481 33.477 1.05 45.493-11.25 2.75-2.814 4.612-7.177 7.595-9.679-1.048 3.336-1.754 4.492-3.542 7.513-7.922 9.753-17.32 14.5-29.89 15.865a70.4 70.4 0 0 1-19.286-.662c-4.285 2.118-19.742 10.03-23.357 11.082.358-.96.887-1.945 1.802-2.448 6.556-3.598 14.49-7.137 21.185-10.42z" class="fil5"/><path d="M261.278 39.163c1.942.173 7.997 1.188 9.142 1.082 11.905 4.355 13.558 5.02 23.555 12.817.568 2.128 3.445 5.293 4.758 8.102.573 1.605 1.464 3.711 1.582 5.354l-.635-.442c-1.096-2.991-3.273-8.56-5.569-10.646l-.387.212c.308 2.99 7.441 11.347 4.912 13.524-.3-.545-.956-2.744-1.207-3.522-5.12-15.93-21.942-22.992-37.61-23.896-.445-.426-.295-.16-.392-.825 1.357-.09 2.044-.038 3.37.052l.477-.545c-.938-.94-1.798-.675-3.516-.845l.542-.072.206-.282z" style="fill:url(#id0);fill-rule:nonzero"/><path d="M217.071 53.172c9.674-8.415 13.096-9.572 25.115-13.651l.635.898-.511.587c-2.4-.025-5.296 1.126-7.62 1.856l.075.347c3.834.346 5.657-2.016 9.378-1.024-10.011 2.226-16.27 4.55-23.96 11.682l-.99-.63-1.861.69z" class="fil9"/><path d="m211.633 62.224.603 1.824c.73.254.374.149 1.064.324l.2.28c-1.065 4.006-1.48 6.32-1.6 10.52q-.48 1.629-.93 3.265c-.834-.876-.928-1.637-1.267-2.8-1.267-2.946.893-10.434 1.93-13.413" class="fil10"/><path d="m217.332 53.928 1.861-.69.99.63c-4.338 4.797-3.898 5.708-6.682 10.784l-.202-.28c-.689-.175-.334-.07-1.063-.324l-.603-1.824c1.008-2.629 3.913-6.107 5.698-8.296" class="fil7"/><path d="M221.29 60.315c6.033-10.068 22.115-14.23 33.035-14.099 12.377.15 23.674 2.074 32.78 10.995 9.456 8.239 9.861 24.012 1.045 32.932-11.966 12.102-27.957 13.19-43.796 10.752-5.51 2.31-11.35 5.239-16.69 7.974 1.163-4.105 2.574-8.688 3.582-12.791-7.008-4.49-12.281-9.04-14.178-17.607a22.35 22.35 0 0 1 2.781-16.364c.297-.48.998-1.515 1.44-1.792" class="fil1"/><path d="M221.29 60.315c6.033-10.068 22.115-14.23 33.035-14.099 12.377.15 23.674 2.074 32.78 10.995l-.88.216c-1.353-1.048-4.785-4.118-6.221-4.745-15.192-6.615-38.915-7.62-52.677 2.802-1.975 1.495-3.85 3.988-6.038 4.831" class="fil11"/><path d="M251.672 77.935a5.3 5.3 0 0 1-.167-6.548 5.294 5.294 0 0 1 6.323-1.707 5.296 5.296 0 0 1 3.15 5.743l.326.095c1.176 3.869-1.907 6.8-4.921 8.787-1.498.985-4.948-4.59-4.935-6.205z" class="fil4"/><path d="m260.979 75.423.325.095c1.176 3.869-1.907 6.8-4.921 8.787-1.498.985-4.948-4.59-4.935-6.205l.224-.165a5.3 5.3 0 0 0 9.307-2.512" class="fil12"/><path d="M234.828 77.997a5.251 5.251 0 1 1 8.858-1.28c1.336 5.114-8.801 7.182-8.858 1.28" class="fil4"/><path d="M243.686 76.716c1.336 5.115-8.801 7.183-8.858 1.281a5.252 5.252 0 0 0 8.858-1.28" class="fil11"/><path d="M273.552 79.638a5.27 5.27 0 1 1 3.817-3.175l1.043 1.062c-.774 2.134-.907 2.541-3.18 3.303-1.19-.584-.881-.26-1.68-1.19" class="fil4"/><path d="m277.369 76.463 1.043 1.062c-.774 2.134-.907 2.541-3.18 3.302-1.19-.583-.881-.26-1.68-1.19a5.27 5.27 0 0 0 3.817-3.175z" class="fil12"/><path d="m217.071 53.172.26.756c-1.785 2.189-4.69 5.667-5.698 8.296-1.037 2.98-3.197 10.467-1.93 13.412l.168 2.84.324 2.039c-16.682 8.142-26.035 9.59-43.106 14.58l.357 2.002c-.095 18.39 1.81 30.148 4.407 47.816l-.566.14c.26 1.102.57 1.91.347 3.008-4.143 1.912-13.902 7.13-17.821 7.105-.996-.43-.927-.43-1.677-1.232-1.51-8.19-2.984-15.015-4.006-23.37-2.19-17.91-2.054-35.04-1.833-53.02 29.936-7.054 43.472-11.656 70.774-24.372" style="fill:url(#id1);fill-rule:nonzero"/><path d="m209.871 78.477.323 2.038c-16.681 8.143-26.034 9.59-43.105 14.58-.542-.936-.375-.435-.297-1.572 2.152-1.795 9.83-2.653 13.236-3.746 10.803-3.466 19.551-6.402 29.843-11.3" class="fil5"/><path d="m294.024 90.664.356.802c-3.92 6.305-13.628 12.432-20.783 14.19-2.759.677-7.301 1.386-10.204 1.897l-.234.379c5.349.388 15.721-3.253 20.356-5.696l.348.292c-1.252 1.74-2.67 1.753-2.926 2.776 2.64-.56 5.062-3.243 7.42-3.526-.22.88-2.468 2.07-3.3 2.578-17.215 10.483-33.032 2.714-44.064 7.99-4.067 1.943-13.983 9.44-18.19 8.464-.704-.165-1.16-.545-1.58-1.137-.39-.547-.71-1.668-.749-2.34l1.016-.384c3.615-1.052 19.072-8.964 23.357-11.082a70.4 70.4 0 0 0 19.286.662c12.57-1.365 21.968-6.113 29.89-15.865m-83.83-10.149c.307 1.551.372 1.529.044 3.152-4.757 6.423-32.19 12.535-40.28 15.005q-.278.55-.553 1.1l-1.206-1.583.257 1.05c-.812-.91-.72-.928-1.01-2.142l-.357-2.002c17.071-4.99 26.424-6.438 43.106-14.58m133.86 14.158c.044 1.156.172 1.24-.393 2.205l-.281-.048.55.86-.718-.853c-5.335-.474-8.221-2.328-13.557-2.247 1.273.86 5.463 1.63 7.618 2.428l-.234.489c-.802-.005-.652.078-1.282-.167-7.723-2.993-24.145-5.904-30.128-11.114l.608-.618c-1.27-.73-2.066-1.082-3.075-2.163l.339-.28c7.799 3.604 14.536 5.09 22.131 8.23l.489.209.476-.42c-7.221-3.368-16.298-5.12-24.78-9.479l.01-.531c4.317.993 15.623 5.982 20.906 7.733 7.292 2.419 14.663 3.622 21.32 5.766m-124.667-1.686c1.352 1.152 5.817 4.598 6.25 5.79-2.776.285-6.355-2.887-6.25-5.79" class="fil12"/><path d="M257.586 166.893c1.642.103 3.683.17 5.282.368 5.918 1.159 11.073 2.696 15.416 7.248 3.297 2.235 4.178 6.84 5.284 10.44l.413-.892c1.208 5.3 1.309 33.594-1.237 38.405-1.841 1.396-3.15 1.334-5.354 1.04-2.304-1.539-3.595-3.102-5.057-5.451l-.01-.33c.913.053.463.014 1.354.124-.023-3.477.246-26.714-.481-28.507l-.71-.158c-1.925 3.395.794 27.986-1.233 32.281l-.405-.154c-.01-1 .171-1.754-.264-2.471-9.526-.471-19.75-.238-29.31-.15.297 2.255 1.204-.423.956 2.41l-.568.137c-3.055-3.142-1.304-25.609-1.641-31.476l-1.21-.715-.683.415c-.491 2.59-.23 25.753-.01 29.326-1.978-.08-7.853-.525-9.372.26l-.095 2.203-.331-.031c-1.404-2.138-1.375-28.763-.872-32.383l.179-.037.333 2.013c.103-2.05.17-3.59.471-5.64.188-1.11.51-2.223.792-3.32a19 19 0 0 1 2.539-4.967c4.447-6.222 11.058-8.499 18.179-9.818z" class="fil7"/><path d="m283.568 184.949.414-.892c1.208 5.3 1.308 33.594-1.238 38.405-1.841 1.396-3.15 1.334-5.354 1.04-2.304-1.539-3.595-3.102-5.057-5.451l-.01-.33c.913.053.463.014 1.354.124-.023-3.477.246-26.714-.481-28.507l-.71-.158c-1.925 3.395.794 27.986-1.233 32.281l-.405-.154c-.01-1 .171-1.754-.264-2.471-9.526-.471-19.75-.238-29.31-.15.297 2.255 1.204-.423.957 2.41l-.569.137c-3.055-3.142-1.304-25.609-1.641-31.476l-1.21-.715-.683.415c-.491 2.59-.23 25.753-.01 29.326-1.978-.08-7.853-.525-9.372.26l-.095 2.203-.331-.031c-1.403-2.138-1.375-28.763-.872-32.383l.18-.037.332 2.013c-.208 4.337-.243 22.344.629 26.22 1.64 1.486 6.393.966 8.703.896-.024-3.446-.558-27.529.299-28.888 1.22-.589 1.191-.473 2.559-.24 1.042 2.273.447 24.435.617 28.89l30.362.018c.203-5.372-.607-24.723.261-28.424 1.066-1.045.396-.654 2.339-.707 1.282 1.212.626 25.345.811 29.382 3.81.03 5.357-.027 9.111-.569.472-9.133.512-23.559-.083-32.437" class="fil11"/><path d="M257.586 166.893c1.642.103 3.683.17 5.282.368 5.918 1.159 11.073 2.696 15.416 7.248l-.554.538c-11.597-10.655-39.006-9.585-46.892 5.567l-1.615 1.235a19 19 0 0 1 2.54-4.968c4.446-6.222 11.057-8.499 18.178-9.818z" class="fil14"/><path d="M230.839 180.614c-.432 1.377-1.154 4.327-2.05 5.231l-.358-.677c.188-1.11.51-2.223.792-3.32z" class="fil9"/><path d="m280.189 172.359-.349-.942c2.133-2.228 9.685-2.914 12.703-2.983 7.186-.163 14.809.64 20.22 5.896 6.114 5.23 7.199 16.854 3.766 23.88l.348.45c-2.159 3.773-4.868 8.111-8.887 9.43-1.502.488-.022 4.502-2.969 7.264-4.798 4.504-13.862 3.35-20.175 3.208l-.2-.665 1.337-.528c1.286-3.57-.666-26.15.761-30.335.41-5.035-2.634-11.57-6.555-14.675" class="fil15"/><path d="m316.53 198.21.347.45c-2.159 3.772-4.868 8.111-8.887 9.43-1.502.488-.022 4.502-2.969 7.264-4.798 4.504-13.862 3.35-20.175 3.208l-.2-.665 1.337-.529c1.286-3.569-.666-26.15.761-30.334.635 9.604.42 21.002.432 30.74 4.305.004 8.601.079 12.893-.252 3.057-1.982 4.277-3.361 6.432-6.318.088-6.027.097-12.054.036-18.082l3.4.855-.206 13.209c.863-1.176 6.107-8.385 6.798-8.975z" class="fil11"/><path d="m280.189 172.359-.349-.942c2.133-2.228 9.685-2.914 12.703-2.983 7.186-.163 14.809.64 20.22 5.896-2.195.115-3.724-1.519-5.892-2.292-8.97-3.205-17.866-2.2-26.682.32z" class="fil4"/><path d="M306.537 193.122c-.04-1.732-.317-2.921.691-4.247l.872-.487c1.433.51.811.1 1.807 1.446.238 1.715.146 2.39.03 4.143z" style="fill:#010217;fill-rule:nonzero"/><path d="M194.96 180.543c3.23-9.23 12.735-12.429 21.77-12.285 3.39.053 13.666.171 15.361 3.492-4.82 4.462-7.65 10.107-7.504 16.643.188 8.325-.454 20.035.224 28.015-.17.727-.02.326-.578 1.159-4.66 1.159-12.737.832-16.28-2.785l-2.623-3.264c-.183-3.155-.136-6.834-.17-10.038-.747.943-.467 6.786-.454 8.438l-.364.197c.195-2.902-.702-1.083-2.149-2.41.314-3.119.303-7.943-.324-10.992-.106 3.331-.047 6.997-.063 10.354-6.371-8.38-11.17-15.456-6.846-26.524" class="fil15"/><path d="M194.96 180.543c3.23-9.23 12.735-12.429 21.77-12.285 3.39.053 13.666.171 15.361 3.492-3.097-.052-6.098-.855-9.167-1.276-11.127-1.527-20.909-.18-27.12 10.17z" class="fil4"/><path d="M201.869 196.713c-.1-2.613-.389-5.283.22-7.785l.53-.49c1.538.085 1.65-.197 2.477.62.59 3.02.125 9.096.065 12.422-.748.943-.468 6.786-.455 8.438l-.364.197c.194-2.902-.702-1.083-2.149-2.41.314-3.119.303-7.943-.324-10.992" class="fil11"/><path d="M207.953 214.782c6.435 1.322 10.87.797 16.858 1.626-.17.727-.02.326-.578 1.158-4.66 1.16-12.737.833-16.28-2.784" style="fill:#2ac3cb;fill-rule:nonzero"/><path d="M240.958 146.614c1.022-4.422 3.045-7.882 7.005-10.319a16 16 0 0 1 12.164-1.802c3.658.945 6.447 3.11 8.337 6.354 1.93 2.308 2.476 5.783 2.55 8.728-.378 4.536-.532 5.22-2.968 9.083l.343.626c-1.384 1.515-5.036 4.152-5.155 4.815.7 1.332.97 1.317.916 2.618l-1.281.544c-1.6-.198-3.64-.266-5.283-.369l-7.645.17c-1.64-.017-3.829-.103-4.716-1.75l2.954.3-.049-.41c-4.855-2.605-4.887-3.338-6.724-8.208l.26-.417 1.455 1.36.076-.823c-2.17-3.48-3.08-6.484-2.24-10.5z" class="fil7"/><path d="M249.94 167.063c-1.638-.018-3.828-.104-4.715-1.751l2.954.3-.049-.41c-4.855-2.605-4.887-3.338-6.724-8.208l.26-.417 1.455 1.36c2.21 2.15 3.564 3.469 6.031 5.328 8.495 2.148 12.654 1.704 18.894-4.607l.343.626c-1.384 1.515-5.036 4.152-5.155 4.815.7 1.332.969 1.317.916 2.618l-1.282.544c-1.6-.198-3.64-.266-5.282-.369z" class="fil11"/><path d="M249.94 167.063c-1.638-.018-3.828-.104-4.715-1.751l2.954.3-.049-.41c-4.855-2.605-4.887-3.338-6.724-8.208l.26-.417 1.455 1.36c2.21 2.15 3.564 3.469 6.031 5.328l-.11.47c1.643.53 2.996.95 4.67 1.37l-.383.537c-1.414-.114-1.82-.15-3.256-.476l-.71.3c1.463 1.05 5.151.44 8.223 1.426z" class="fil12"/><path d="M243.197 157.115c2.748.367 3.514 3.427 8.48 4.878a14.16 14.16 0 0 0 11.156-1.29c4.146-2.388 6.904-6.592 8.182-11.128-.38 4.536-.533 5.22-2.97 9.082-6.239 6.312-10.398 6.756-18.893 4.608-2.467-1.859-3.821-3.178-6.031-5.328z" class="fil10"/><path d="M240.958 146.614c1.022-4.422 3.045-7.882 7.005-10.319a16 16 0 0 1 12.164-1.802c3.658.945 6.447 3.11 8.337 6.354-.987-.399-.956-.403-1.705-1.146-3.146-3.118-7.16-4.688-11.605-4.353a14.8 14.8 0 0 0-10.225 5.262c-2.083 2.45-3.037 4.88-3.615 7.988-.347-1.109-.272-.822-.356-1.984" class="fil14"/><path d="M205.353 148.938a13.374 13.374 0 1 1 25.43 8.294 13.374 13.374 0 0 1-25.43-8.294" class="fil15"/><path d="M205.353 148.938a13.374 13.374 0 0 1 22.956-4.453c-1.47-.006-1.51-.309-2.644-1.066-5.435-3.625-11.112-3.488-15.996.968-1.511 1.378-2.986 3.466-4.316 4.55" class="fil4"/><path d="M280.951 148.83a13.35 13.35 0 0 1 9.737-8.69 13.37 13.37 0 0 1 12.5 3.754 13.36 13.36 0 0 1-15.875 21.084 13.354 13.354 0 0 1-6.362-16.148" class="fil15"/><path d="M280.951 148.83a13.35 13.35 0 0 1 9.737-8.69 13.37 13.37 0 0 1 12.5 3.754c-4.128-.195-8.588-5.67-15.218-1.558-3.014 1.867-5.015 5.24-7.019 6.494m-97.143 190.136c-5.003-4.393-6.403-13.346-3.032-19.078 3.905-6.724 11.871-9.495 19.36-9.477 12.183.03 19.679 3.018 22.694 15.544a358 358 0 0 0-12.081 3.437c-.63-2.124-1.068-3.133-1.996-5.156-4.532-4.397-10.497-4.515-15.201-.338-.383 1.687-.925 3.498.01 5.115 4.487 7.754 34.293 3.75 30.277 26.793-.14.798-.142.75-.341 1.397-4 15.147-29.338 17.192-39.307 8.727-4.371-3.233-5.793-7.388-7.208-12.31 3.74-1.14 8.656-2.198 12.527-3.146q.268 1.171.615 2.323c3.11 10.045 23.257 9.441 18.62-2.392-5.922-5.8-16.587-4.187-24.937-11.439" class="fil4"/><path d="M184.19 365.93c1.588-.436 9.665 2.481 13.024 2.763 7.32.74 15.858.155 21.138-5.634 1.672-1.834 3.16-4.495 5.146-5.856-4 15.147-29.338 17.192-39.307 8.727zm-.382-26.964c1.858-.48 20.128 6.169 22.83 7.388.985.446 1.954 1.388 2.462 2.389-.111.66-.126 1.035-.355 1.661-5.922-5.799-16.587-4.186-24.937-11.438m9.744-15.069c-.045-1.287-.301-1.84.84-2.824 3.654-3.146 14.267-3.274 14.361 3.163-4.532-4.397-10.497-4.515-15.201-.339" class="fil5"/><path d="M285.89 311.666c4.344-.185 9.222-.1 13.606-.128-.071 7.887-1.675 40.61 2.719 45.317 1.652 1.77 4.087 2.282 6.423 2.287 2.583 0 5.336-.807 7.143-2.732 1.595-1.693 2.118-4.04 2.458-6.274.749-4.97.387-10.258.366-15.294l-.053-23.11c4.304-.184 8.97-.145 13.306-.19-.127 11.637 2.16 41.608-3.269 50.353-6.526 10.376-25.014 11.218-34.557 5.067a14.7 14.7 0 0 1-3.242-2.863c-5.83-5.636-4.909-19.783-4.914-27.401z" class="fil4"/><path d="M290.79 364.098c2.061.145 9.305 3.975 13.284 4.6 5.652.947 12.67-.26 17.924-2.432 2.08-.859 3.418-3.763 6.591-4.371-6.526 10.376-25.014 11.218-34.557 5.067a14.7 14.7 0 0 1-3.242-2.864" class="fil5"/><path d="M266.548 311.675c4.348-.234 9.415-.137 13.817-.155a407 407 0 0 1-4.737 13.33l-15.786 44.803c-4.702-.061-9.474-.016-14.18-.016-4.785-13.35-8.751-27.265-13.427-40.686-1.945-5.583-4.006-11.658-5.536-17.329 4.887-.092 9.912-.061 14.811-.088 3.333 13.002 8.092 27.243 11.77 40.377a1798 1798 0 0 0 13.268-40.236" class="fil4"/></g></g></svg>